<svg width="1575" height="478" xmlns="http://www.w3.org/2000/svg" xmlns:xlink="http://www.w3.org/1999/xlink" xml:space="preserve" overflow="hidden"><g transform="translate(-2409 -1023)"><path d="M33 0 66 0 66 132C66 150.225 51.2254 165 33 165L0 165 0 33C-5.25168e-15 14.7746 14.7746-1.05034e-14 33-1.05034e-14Z" fill="#C00000" fill-rule="evenodd" transform="matrix(-6.12323e-17 -1 -1 6.12323e-17 2712 1249)"/><path d="M33 0 66 0 66 297C66 315.225 51.2254 330 33 330L0 330 0 33C-5.25168e-15 14.7746 14.7746-1.05034e-14 33-1.05034e-14Z" fill="#C00000" fill-rule="evenodd" transform="matrix(-1 0 0 1 2508 1023)"/><path d="M33 0 66 0 66 132C66 150.225 51.2254 165 33 165L0 165 0 33C-5.25168e-15 14.7746 14.7746-1.05034e-14 33-1.05034e-14Z" fill="#C00000" fill-rule="evenodd" transform="matrix(-6.12323e-17 -1 -1 6.12323e-17 2712 1353)"/><text fill="#C00000" font-family="Arial Nova,Arial Nova_MSFontService,sans-serif" font-weight="400" font-size="183" transform="matrix(1 0 0 1 2816.23 1349)">LeetSolve</text></g></svg>