<?xml version="1.0" encoding="UTF-8"?>
<svg xmlns="http://www.w3.org/2000/svg" xmlns:xlink="http://www.w3.org/1999/xlink" width="360px" height="118px" viewBox="0 0 360 118" version="1.1">
<g id="surface1">
<path style=" stroke:none;fill-rule:evenodd;fill:rgb(0%,0%,0%);fill-opacity:1;" d="M 146.714844 14.722656 L 154.957031 14.722656 L 154.957031 106.820312 L 146.714844 106.820312 L 146.714844 105.335938 L 151.832031 105.335938 L 151.832031 16.210938 L 146.714844 16.210938 Z M 23.644531 14.722656 L 31.886719 14.722656 L 31.886719 16.210938 L 26.761719 16.210938 L 26.761719 105.335938 L 31.886719 105.335938 L 31.886719 106.820312 L 23.644531 106.820312 Z M 23.644531 14.722656 "/>
<path style=" stroke:none;fill-rule:evenodd;fill:rgb(0%,0%,0%);fill-opacity:1;" d="M 42.347656 13.769531 L 43.183594 13.769531 C 43.121094 14.742188 43.09375 16.085938 43.09375 17.800781 L 43.09375 30.753906 C 43.09375 31.339844 43.125 31.78125 43.1875 32.082031 C 43.257812 32.378906 43.375 32.621094 43.539062 32.808594 C 43.707031 32.996094 43.945312 33.140625 44.261719 33.25 C 44.570312 33.351562 44.964844 33.433594 45.441406 33.492188 C 45.914062 33.542969 46.539062 33.582031 47.320312 33.605469 L 47.320312 34.710938 L 36.117188 34.710938 L 36.117188 33.605469 C 37.242188 33.554688 38.042969 33.484375 38.523438 33.402344 C 39 33.3125 39.367188 33.179688 39.621094 33.011719 C 39.875 32.84375 40.058594 32.601562 40.175781 32.285156 C 40.289062 31.972656 40.351562 31.460938 40.351562 30.753906 L 40.351562 18.457031 C 40.351562 18.050781 40.277344 17.757812 40.136719 17.570312 C 39.996094 17.382812 39.785156 17.289062 39.515625 17.289062 C 39.195312 17.289062 38.730469 17.457031 38.136719 17.789062 C 37.539062 18.125 36.800781 18.582031 35.925781 19.167969 L 35.253906 18 Z M 42.347656 13.769531 "/>
<path style=" stroke:none;fill-rule:evenodd;fill:rgb(0%,0%,0%);fill-opacity:1;" d="M 89.441406 13.769531 C 91.320312 13.769531 92.742188 14.183594 93.703125 15.007812 C 94.660156 15.832031 95.140625 17.027344 95.140625 18.59375 C 95.140625 19.128906 95.085938 19.621094 94.984375 20.070312 C 94.875 20.523438 94.707031 20.964844 94.480469 21.402344 C 94.253906 21.84375 93.949219 22.320312 93.558594 22.820312 C 93.175781 23.328125 92.753906 23.84375 92.289062 24.363281 C 91.828125 24.882812 91.019531 25.75 89.882812 26.964844 C 87.964844 28.992188 86.550781 30.769531 85.65625 32.285156 L 91.367188 32.285156 C 91.863281 32.285156 92.261719 32.253906 92.5625 32.191406 C 92.867188 32.132812 93.109375 32.03125 93.289062 31.886719 C 93.46875 31.746094 93.617188 31.566406 93.722656 31.335938 C 93.824219 31.109375 93.960938 30.757812 94.125 30.285156 L 95.410156 30.285156 L 95.152344 34.710938 L 82.679688 34.710938 L 82.679688 33.984375 C 83.117188 32.921875 83.703125 31.832031 84.441406 30.726562 C 85.175781 29.613281 86.226562 28.304688 87.578125 26.796875 C 88.746094 25.503906 89.59375 24.519531 90.105469 23.855469 C 90.671875 23.125 91.09375 22.5 91.371094 21.96875 C 91.652344 21.4375 91.851562 20.933594 91.976562 20.464844 C 92.09375 19.996094 92.15625 19.523438 92.15625 19.050781 C 92.15625 18.289062 92.03125 17.621094 91.789062 17.039062 C 91.546875 16.457031 91.179688 16 90.675781 15.667969 C 90.175781 15.335938 89.546875 15.164062 88.792969 15.164062 C 86.902344 15.164062 85.628906 16.214844 84.972656 18.320312 L 83.136719 18.320312 L 83.136719 15.40625 C 84.355469 14.832031 85.503906 14.414062 86.570312 14.160156 C 87.636719 13.898438 88.59375 13.769531 89.441406 13.769531 Z M 89.441406 13.769531 "/>
<path style=" stroke:none;fill-rule:evenodd;fill:rgb(0%,0%,0%);fill-opacity:1;" d="M 137.550781 13.769531 C 138.691406 13.769531 139.6875 13.945312 140.546875 14.300781 C 141.410156 14.65625 142.066406 15.164062 142.523438 15.824219 C 142.972656 16.484375 143.199219 17.277344 143.199219 18.195312 C 143.199219 19.054688 143.03125 19.8125 142.683594 20.464844 C 142.339844 21.117188 141.863281 21.6875 141.242188 22.171875 C 140.621094 22.65625 139.8125 23.132812 138.820312 23.59375 L 138.820312 23.730469 C 139.441406 23.84375 140.035156 24.035156 140.601562 24.300781 C 141.171875 24.570312 141.679688 24.914062 142.125 25.339844 C 142.574219 25.761719 142.929688 26.269531 143.191406 26.863281 C 143.464844 27.457031 143.59375 28.128906 143.59375 28.890625 C 143.59375 30.058594 143.339844 31.101562 142.832031 32.011719 C 142.320312 32.921875 141.539062 33.636719 140.492188 34.164062 C 139.441406 34.6875 138.160156 34.953125 136.652344 34.953125 C 135.785156 34.953125 134.847656 34.851562 133.84375 34.65625 C 132.839844 34.460938 131.917969 34.199219 131.078125 33.875 L 131.078125 30.664062 L 132.894531 30.664062 C 133.25 31.714844 133.71875 32.476562 134.300781 32.949219 C 134.882812 33.425781 135.671875 33.667969 136.671875 33.667969 C 137.984375 33.667969 138.976562 33.304688 139.648438 32.589844 C 140.320312 31.871094 140.652344 30.808594 140.652344 29.402344 C 140.652344 27.925781 140.214844 26.800781 139.320312 26.023438 C 138.429688 25.242188 137.128906 24.851562 135.410156 24.851562 L 134.046875 24.851562 L 134.046875 23.519531 C 135.410156 23.441406 136.5625 23.175781 137.492188 22.730469 C 138.429688 22.285156 139.125 21.714844 139.582031 21.019531 C 140.035156 20.320312 140.257812 19.535156 140.257812 18.671875 C 140.257812 17.546875 139.964844 16.683594 139.367188 16.074219 C 138.769531 15.46875 137.898438 15.164062 136.761719 15.164062 C 135.8125 15.164062 135.039062 15.425781 134.441406 15.9375 C 133.847656 16.453125 133.410156 17.242188 133.125 18.304688 L 131.304688 18.304688 L 131.304688 15.425781 C 132.476562 14.867188 133.574219 14.453125 134.59375 14.183594 C 135.613281 13.90625 136.597656 13.769531 137.550781 13.769531 Z M 137.550781 13.769531 "/>
<path style=" stroke:none;fill-rule:evenodd;fill:rgb(0%,0%,0%);fill-opacity:1;" d="M 42.152344 53.742188 L 36.226562 63.160156 L 36.226562 63.371094 L 42.152344 63.371094 L 42.152344 59.597656 C 42.152344 58.644531 42.167969 57.582031 42.195312 56.402344 C 42.230469 55.230469 42.261719 54.34375 42.304688 53.742188 Z M 42.589844 50.316406 L 44.757812 50.316406 L 44.757812 63.371094 L 45.078125 63.371094 C 45.660156 63.371094 46.082031 63.332031 46.335938 63.238281 C 46.585938 63.15625 46.792969 63.003906 46.964844 62.789062 C 47.132812 62.566406 47.285156 62.210938 47.425781 61.722656 L 48.578125 61.722656 L 48.398438 64.84375 L 44.757812 64.84375 L 44.757812 67.328125 C 44.757812 68.003906 44.78125 68.503906 44.824219 68.8125 C 44.871094 69.128906 44.949219 69.378906 45.054688 69.558594 C 45.15625 69.738281 45.316406 69.890625 45.523438 70.015625 C 45.734375 70.132812 46.066406 70.257812 46.527344 70.375 L 46.527344 71.121094 L 40.378906 71.121094 L 40.378906 70.375 C 41.003906 70.210938 41.421875 70.039062 41.636719 69.839844 C 41.851562 69.644531 41.988281 69.359375 42.054688 69 C 42.121094 68.632812 42.152344 68.078125 42.152344 67.328125 L 42.152344 64.84375 L 33.726562 64.84375 L 33.726562 63.703125 Z M 42.589844 50.316406 "/>
<path style=" stroke:none;fill-rule:evenodd;fill:rgb(0%,0%,0%);fill-opacity:1;" d="M 93.683594 49.425781 L 94.863281 49.425781 L 94.636719 52.941406 L 85.925781 52.941406 L 85.925781 59.597656 C 86.449219 59.371094 87.019531 59.207031 87.636719 59.097656 C 88.257812 58.984375 88.871094 58.925781 89.488281 58.925781 C 90.6875 58.925781 91.753906 59.175781 92.6875 59.667969 C 93.609375 60.152344 94.332031 60.851562 94.835938 61.753906 C 95.34375 62.660156 95.59375 63.707031 95.59375 64.90625 C 95.59375 66.253906 95.308594 67.417969 94.746094 68.390625 C 94.179688 69.359375 93.363281 70.101562 92.289062 70.601562 C 91.21875 71.109375 89.949219 71.363281 88.488281 71.363281 C 86.738281 71.363281 84.910156 71.003906 83.003906 70.285156 L 83.003906 67.074219 L 84.835938 67.074219 C 85.136719 68.101562 85.59375 68.859375 86.207031 69.34375 C 86.816406 69.828125 87.609375 70.070312 88.578125 70.070312 C 89.921875 70.070312 90.9375 69.671875 91.625 68.859375 C 92.308594 68.050781 92.652344 66.84375 92.652344 65.238281 C 92.652344 64.167969 92.472656 63.28125 92.109375 62.574219 C 91.742188 61.875 91.253906 61.367188 90.636719 61.050781 C 90.023438 60.738281 89.304688 60.582031 88.488281 60.582031 C 87.800781 60.582031 87.207031 60.625 86.714844 60.710938 C 86.21875 60.796875 85.6875 60.929688 85.125 61.113281 L 83.910156 60.398438 L 83.910156 50.421875 L 92.261719 50.421875 C 92.601562 50.421875 92.847656 50.394531 93 50.339844 C 93.152344 50.28125 93.273438 50.199219 93.367188 50.078125 C 93.457031 49.964844 93.558594 49.746094 93.683594 49.425781 Z M 93.683594 49.425781 "/>
<path style=" stroke:none;fill-rule:evenodd;fill:rgb(0%,0%,0%);fill-opacity:1;" d="M 138.1875 60.203125 C 137.691406 60.203125 137.210938 60.257812 136.753906 60.371094 C 136.292969 60.480469 135.863281 60.644531 135.457031 60.851562 C 135.054688 61.066406 134.660156 61.335938 134.277344 61.660156 C 134.152344 61.765625 134.0625 61.886719 134 62.007812 C 133.898438 62.203125 133.835938 62.4375 133.804688 62.71875 C 133.777344 63.003906 133.757812 63.476562 133.757812 64.144531 C 133.757812 66.074219 134.085938 67.546875 134.730469 68.558594 C 135.378906 69.570312 136.359375 70.070312 137.667969 70.070312 C 138.429688 70.070312 139.0625 69.941406 139.582031 69.675781 C 140.09375 69.417969 140.511719 69.054688 140.828125 68.59375 C 141.152344 68.136719 141.375 67.59375 141.511719 66.972656 C 141.648438 66.351562 141.714844 65.671875 141.714844 64.949219 C 141.714844 63.453125 141.410156 62.285156 140.789062 61.457031 C 140.175781 60.621094 139.304688 60.203125 138.1875 60.203125 Z M 142.082031 50.179688 L 142.703125 51.015625 L 142.703125 51.757812 C 141.144531 51.757812 139.769531 52.089844 138.566406 52.753906 C 137.363281 53.425781 136.367188 54.402344 135.570312 55.695312 C 134.78125 56.996094 134.222656 58.53125 133.898438 60.308594 L 134.046875 60.371094 C 134.898438 59.761719 135.734375 59.316406 136.558594 59.035156 C 137.382812 58.75 138.273438 58.609375 139.230469 58.609375 C 140.371094 58.609375 141.34375 58.859375 142.148438 59.363281 C 142.949219 59.863281 143.554688 60.5625 143.960938 61.46875 C 144.359375 62.371094 144.5625 63.433594 144.5625 64.644531 C 144.5625 65.960938 144.308594 67.117188 143.808594 68.125 C 143.300781 69.128906 142.523438 69.917969 141.464844 70.496094 C 140.410156 71.078125 139.109375 71.363281 137.5625 71.363281 C 135.351562 71.363281 133.683594 70.675781 132.558594 69.296875 C 131.429688 67.925781 130.863281 65.898438 130.863281 63.21875 C 130.863281 61.421875 131.152344 59.738281 131.714844 58.171875 C 132.28125 56.605469 133.082031 55.234375 134.125 54.070312 C 135.164062 52.902344 136.371094 51.980469 137.746094 51.308594 C 139.117188 50.636719 140.5625 50.261719 142.082031 50.179688 Z M 142.082031 50.179688 "/>
<path style=" stroke:none;fill-rule:evenodd;fill:rgb(0%,0%,0%);fill-opacity:1;" d="M 35.109375 86.835938 L 48.109375 86.835938 L 48.109375 87.558594 L 39.289062 107.632812 L 37.089844 107.632812 L 37.089844 106.894531 L 45.257812 89.589844 L 45.257812 89.363281 L 38.589844 89.363281 C 38.179688 89.363281 37.84375 89.402344 37.597656 89.476562 C 37.347656 89.554688 37.144531 89.664062 36.976562 89.804688 C 36.8125 89.945312 36.671875 90.132812 36.558594 90.363281 C 36.453125 90.59375 36.300781 91.058594 36.105469 91.746094 L 34.804688 91.746094 Z M 35.109375 86.835938 "/>
<path style=" stroke:none;fill-rule:evenodd;fill:rgb(0%,0%,0%);fill-opacity:1;" d="M 89.324219 97.433594 C 88.574219 97.433594 87.945312 97.542969 87.433594 97.78125 C 86.925781 98.011719 86.507812 98.324219 86.191406 98.71875 C 85.875 99.113281 85.644531 99.578125 85.507812 100.109375 C 85.371094 100.640625 85.304688 101.203125 85.304688 101.8125 C 85.304688 102.46875 85.378906 103.082031 85.53125 103.652344 C 85.683594 104.222656 85.925781 104.722656 86.253906 105.132812 C 86.582031 105.546875 87.003906 105.878906 87.515625 106.121094 C 88.03125 106.363281 88.65625 106.480469 89.394531 106.480469 C 90.226562 106.480469 90.9375 106.3125 91.523438 105.972656 C 92.117188 105.636719 92.566406 105.132812 92.871094 104.464844 C 93.183594 103.800781 93.335938 103.011719 93.335938 102.101562 C 93.335938 101.128906 93.171875 100.292969 92.839844 99.589844 C 92.503906 98.886719 92.03125 98.351562 91.425781 97.984375 C 90.816406 97.613281 90.117188 97.433594 89.324219 97.433594 Z M 89.394531 87.878906 C 88.121094 87.878906 87.152344 88.222656 86.480469 88.917969 C 85.808594 89.605469 85.46875 90.59375 85.46875 91.863281 C 85.46875 92.464844 85.542969 93.023438 85.683594 93.546875 C 85.824219 94.074219 86.050781 94.53125 86.367188 94.914062 C 86.675781 95.296875 87.082031 95.601562 87.585938 95.828125 C 88.085938 96.058594 88.695312 96.171875 89.425781 96.171875 C 90.265625 96.171875 90.96875 96.007812 91.539062 95.679688 C 92.109375 95.347656 92.535156 94.867188 92.816406 94.234375 C 93.09375 93.609375 93.226562 92.875 93.226562 92.046875 C 93.226562 91.136719 93.0625 90.367188 92.738281 89.738281 C 92.410156 89.105469 91.957031 88.636719 91.382812 88.332031 C 90.808594 88.03125 90.140625 87.878906 89.394531 87.878906 Z M 89.425781 86.589844 C 90.878906 86.589844 92.105469 86.796875 93.09375 87.203125 C 94.085938 87.613281 94.832031 88.207031 95.328125 88.980469 C 95.828125 89.753906 96.078125 90.679688 96.078125 91.757812 C 96.078125 92.871094 95.804688 93.828125 95.257812 94.632812 C 94.71875 95.4375 93.871094 96.09375 92.730469 96.597656 L 92.757812 96.792969 C 93.898438 97.238281 94.769531 97.890625 95.347656 98.742188 C 95.9375 99.59375 96.230469 100.628906 96.230469 101.828125 C 96.230469 103.011719 95.949219 104.050781 95.382812 104.953125 C 94.8125 105.851562 93.996094 106.542969 92.917969 107.035156 C 91.84375 107.527344 90.585938 107.769531 89.152344 107.769531 C 87.8125 107.769531 86.632812 107.542969 85.617188 107.097656 C 84.601562 106.644531 83.808594 105.992188 83.25 105.128906 C 82.691406 104.261719 82.410156 103.242188 82.410156 102.074219 C 82.410156 101.191406 82.5625 100.429688 82.863281 99.78125 C 83.167969 99.132812 83.5625 98.601562 84.050781 98.183594 C 84.542969 97.757812 85.164062 97.382812 85.910156 97.035156 L 85.882812 96.839844 C 83.707031 95.902344 82.625 94.285156 82.625 92 C 82.625 90.960938 82.90625 90.03125 83.476562 89.210938 C 84.046875 88.394531 84.863281 87.75 85.921875 87.285156 C 86.976562 86.824219 88.144531 86.589844 89.425781 86.589844 Z M 89.425781 86.589844 "/>
<path style=" stroke:none;fill-rule:evenodd;fill:rgb(0%,0%,0%);fill-opacity:1;" d="M 137.414062 87.878906 C 136.652344 87.878906 136.015625 88.007812 135.492188 88.273438 C 134.960938 88.535156 134.539062 88.894531 134.210938 89.359375 C 133.878906 89.816406 133.640625 90.359375 133.488281 90.980469 C 133.335938 91.601562 133.261719 92.277344 133.261719 93.003906 C 133.261719 94.507812 133.566406 95.675781 134.1875 96.507812 C 134.800781 97.335938 135.671875 97.746094 136.789062 97.746094 C 137.179688 97.746094 137.539062 97.714844 137.890625 97.652344 C 138.238281 97.585938 138.578125 97.488281 138.910156 97.363281 C 139.25 97.234375 139.570312 97.078125 139.890625 96.878906 C 140.207031 96.679688 140.496094 96.472656 140.746094 96.246094 C 140.839844 96.167969 140.917969 96.058594 140.988281 95.929688 C 141.058594 95.800781 141.117188 95.625 141.15625 95.417969 C 141.195312 95.203125 141.21875 94.867188 141.21875 94.410156 C 141.21875 93.027344 141.078125 91.84375 140.800781 90.859375 C 140.523438 89.871094 140.09375 89.125 139.527344 88.628906 C 138.957031 88.128906 138.25 87.878906 137.414062 87.878906 Z M 137.578125 86.589844 C 139.699219 86.589844 141.320312 87.320312 142.429688 88.789062 C 143.539062 90.257812 144.097656 92.363281 144.097656 95.113281 C 144.097656 97.628906 143.683594 99.808594 142.867188 101.65625 C 142.046875 103.496094 140.902344 104.933594 139.429688 105.957031 C 137.949219 106.984375 136.230469 107.589844 134.261719 107.769531 L 133.640625 106.941406 L 133.640625 106.195312 C 135.054688 106.195312 136.28125 105.878906 137.3125 105.25 C 138.351562 104.625 139.179688 103.699219 139.8125 102.472656 C 140.445312 101.242188 140.867188 99.632812 141.078125 97.640625 L 140.929688 97.585938 C 140.078125 98.1875 139.242188 98.632812 138.417969 98.917969 C 137.59375 99.199219 136.703125 99.339844 135.746094 99.339844 C 134.605469 99.339844 133.632812 99.089844 132.828125 98.589844 C 132.027344 98.09375 131.421875 97.386719 131.015625 96.484375 C 130.617188 95.578125 130.414062 94.519531 130.414062 93.304688 C 130.414062 92.394531 130.566406 91.539062 130.863281 90.71875 C 131.167969 89.90625 131.621094 89.195312 132.210938 88.585938 C 132.8125 87.96875 133.554688 87.484375 134.453125 87.128906 C 135.34375 86.765625 136.386719 86.589844 137.578125 86.589844 Z M 137.578125 86.589844 "/>
<path style=" stroke:none;fill-rule:evenodd;fill:rgb(0%,0%,0%);fill-opacity:1;" d="M 185.339844 54.511719 L 191.289062 60.289062 L 191.289062 61.257812 L 185.339844 67.035156 L 184.441406 66.203125 L 187.910156 61.777344 L 168.769531 61.777344 L 168.769531 59.757812 L 187.910156 59.757812 L 184.441406 55.347656 Z M 185.339844 54.511719 "/>
<path style=" stroke:none;fill-rule:evenodd;fill:rgb(0%,0%,0%);fill-opacity:1;" d="M 328.046875 14.722656 L 336.289062 14.722656 L 336.289062 106.820312 L 328.046875 106.820312 L 328.046875 105.335938 L 333.164062 105.335938 L 333.164062 16.210938 L 328.046875 16.210938 Z M 204.972656 14.722656 L 213.21875 14.722656 L 213.21875 16.210938 L 208.09375 16.210938 L 208.09375 105.335938 L 213.21875 105.335938 L 213.21875 106.820312 L 204.972656 106.820312 Z M 204.972656 14.722656 "/>
<path style=" stroke:none;fill-rule:evenodd;fill:rgb(0%,0%,0%);fill-opacity:1;" d="M 222.410156 15.058594 C 221.648438 15.058594 221.011719 15.191406 220.484375 15.453125 C 219.960938 15.71875 219.53125 16.078125 219.203125 16.535156 C 218.878906 17 218.636719 17.535156 218.484375 18.164062 C 218.332031 18.785156 218.257812 19.457031 218.257812 20.183594 C 218.257812 21.691406 218.5625 22.859375 219.183594 23.683594 C 219.796875 24.515625 220.667969 24.933594 221.789062 24.933594 C 222.171875 24.933594 222.539062 24.898438 222.882812 24.832031 C 223.234375 24.769531 223.574219 24.671875 223.910156 24.542969 C 224.242188 24.417969 224.566406 24.253906 224.886719 24.058594 C 225.203125 23.859375 225.492188 23.652344 225.746094 23.429688 C 225.835938 23.347656 225.914062 23.246094 225.980469 23.109375 C 226.054688 22.980469 226.113281 22.808594 226.152344 22.59375 C 226.191406 22.378906 226.214844 22.046875 226.214844 21.59375 C 226.214844 20.210938 226.070312 19.027344 225.796875 18.039062 C 225.519531 17.054688 225.089844 16.3125 224.519531 15.808594 C 223.949219 15.3125 223.246094 15.058594 222.410156 15.058594 Z M 222.574219 13.769531 C 224.695312 13.769531 226.316406 14.503906 227.425781 15.964844 C 228.539062 17.433594 229.089844 19.539062 229.089844 22.289062 C 229.089844 24.808594 228.683594 26.988281 227.859375 28.832031 C 227.042969 30.679688 225.898438 32.113281 224.425781 33.140625 C 222.945312 34.167969 221.226562 34.773438 219.253906 34.953125 L 218.636719 34.117188 L 218.636719 33.375 C 220.050781 33.375 221.277344 33.0625 222.308594 32.4375 C 223.347656 31.808594 224.175781 30.882812 224.808594 29.652344 C 225.441406 28.425781 225.863281 26.816406 226.078125 24.824219 L 225.925781 24.761719 C 225.074219 25.371094 224.238281 25.8125 223.414062 26.09375 C 222.589844 26.382812 221.699219 26.523438 220.738281 26.523438 C 219.601562 26.523438 218.628906 26.269531 217.824219 25.773438 C 217.019531 25.269531 216.417969 24.570312 216.011719 23.660156 C 215.609375 22.757812 215.40625 21.703125 215.40625 20.488281 C 215.40625 19.582031 215.558594 18.714844 215.863281 17.902344 C 216.164062 17.089844 216.613281 16.378906 217.214844 15.761719 C 217.804688 15.152344 218.550781 14.667969 219.449219 14.308594 C 220.339844 13.949219 221.382812 13.769531 222.574219 13.769531 Z M 222.574219 13.769531 "/>
<path style=" stroke:none;fill-rule:evenodd;fill:rgb(0%,0%,0%);fill-opacity:1;" d="M 271.851562 13.769531 L 272.679688 13.769531 C 272.625 14.742188 272.589844 16.085938 272.589844 17.800781 L 272.589844 30.753906 C 272.589844 31.339844 272.625 31.78125 272.691406 32.082031 C 272.753906 32.378906 272.871094 32.621094 273.042969 32.808594 C 273.203125 32.996094 273.449219 33.140625 273.757812 33.25 C 274.074219 33.351562 274.464844 33.433594 274.941406 33.492188 C 275.417969 33.542969 276.042969 33.582031 276.820312 33.605469 L 276.820312 34.710938 L 265.621094 34.710938 L 265.621094 33.605469 C 266.746094 33.554688 267.546875 33.484375 268.023438 33.402344 C 268.503906 33.3125 268.871094 33.179688 269.121094 33.011719 C 269.375 32.84375 269.558594 32.601562 269.671875 32.285156 C 269.792969 31.972656 269.847656 31.460938 269.847656 30.753906 L 269.847656 18.457031 C 269.847656 18.050781 269.78125 17.757812 269.640625 17.570312 C 269.496094 17.382812 269.289062 17.289062 269.019531 17.289062 C 268.691406 17.289062 268.234375 17.457031 267.636719 17.789062 C 267.042969 18.125 266.304688 18.582031 265.421875 19.167969 L 264.757812 18 Z M 271.851562 13.769531 "/>
<path style=" stroke:none;fill-rule:evenodd;fill:rgb(0%,0%,0%);fill-opacity:1;" d="M 318.945312 13.769531 C 320.824219 13.769531 322.238281 14.183594 323.199219 15.007812 C 324.15625 15.832031 324.636719 17.027344 324.636719 18.59375 C 324.636719 19.128906 324.585938 19.621094 324.480469 20.070312 C 324.371094 20.523438 324.207031 20.964844 323.976562 21.402344 C 323.75 21.84375 323.445312 22.320312 323.0625 22.820312 C 322.679688 23.328125 322.257812 23.84375 321.789062 24.363281 C 321.324219 24.882812 320.523438 25.75 319.378906 26.964844 C 317.460938 28.992188 316.050781 30.769531 315.152344 32.285156 L 320.867188 32.285156 C 321.359375 32.285156 321.761719 32.253906 322.066406 32.191406 C 322.363281 32.132812 322.605469 32.03125 322.792969 31.886719 C 322.972656 31.746094 323.113281 31.566406 323.222656 31.335938 C 323.328125 31.109375 323.464844 30.757812 323.621094 30.285156 L 324.914062 30.285156 L 324.65625 34.710938 L 312.183594 34.710938 L 312.183594 33.984375 C 312.617188 32.921875 313.207031 31.832031 313.9375 30.726562 C 314.679688 29.613281 315.722656 28.304688 317.078125 26.796875 C 318.25 25.503906 319.089844 24.519531 319.609375 23.855469 C 320.175781 23.125 320.597656 22.5 320.875 21.96875 C 321.152344 21.4375 321.355469 20.933594 321.472656 20.464844 C 321.597656 19.996094 321.652344 19.523438 321.652344 19.050781 C 321.652344 18.289062 321.535156 17.621094 321.292969 17.039062 C 321.050781 16.457031 320.675781 16 320.175781 15.667969 C 319.679688 15.335938 319.046875 15.164062 318.289062 15.164062 C 316.398438 15.164062 315.128906 16.214844 314.46875 18.320312 L 312.636719 18.320312 L 312.636719 15.40625 C 313.859375 14.832031 315.003906 14.414062 316.070312 14.160156 C 317.136719 13.898438 318.09375 13.769531 318.945312 13.769531 Z M 318.945312 13.769531 "/>
<path style=" stroke:none;fill-rule:evenodd;fill:rgb(0%,0%,0%);fill-opacity:1;" d="M 222.546875 50.179688 C 223.683594 50.179688 224.683594 50.355469 225.546875 50.710938 C 226.40625 51.0625 227.058594 51.570312 227.515625 52.234375 C 227.96875 52.898438 228.199219 53.6875 228.199219 54.609375 C 228.199219 55.464844 228.023438 56.222656 227.679688 56.878906 C 227.335938 57.527344 226.855469 58.097656 226.234375 58.582031 C 225.613281 59.066406 224.808594 59.542969 223.816406 60.003906 L 223.816406 60.140625 C 224.4375 60.253906 225.027344 60.445312 225.597656 60.710938 C 226.167969 60.976562 226.675781 61.324219 227.121094 61.75 C 227.566406 62.171875 227.921875 62.679688 228.1875 63.273438 C 228.457031 63.867188 228.589844 64.539062 228.589844 65.296875 C 228.589844 66.46875 228.335938 67.507812 227.828125 68.421875 C 227.3125 69.332031 226.535156 70.050781 225.484375 70.574219 C 224.4375 71.097656 223.15625 71.363281 221.648438 71.363281 C 220.78125 71.363281 219.84375 71.261719 218.839844 71.066406 C 217.832031 70.867188 216.914062 70.609375 216.074219 70.285156 L 216.074219 67.074219 L 217.890625 67.074219 C 218.246094 68.125 218.714844 68.886719 219.296875 69.359375 C 219.875 69.835938 220.667969 70.070312 221.664062 70.070312 C 222.980469 70.070312 223.972656 69.714844 224.644531 69 C 225.316406 68.277344 225.648438 67.21875 225.648438 65.816406 C 225.648438 64.335938 225.207031 63.210938 224.316406 62.433594 C 223.429688 61.652344 222.128906 61.265625 220.40625 61.265625 L 219.046875 61.265625 L 219.046875 59.929688 C 220.40625 59.847656 221.558594 59.585938 222.488281 59.140625 C 223.425781 58.695312 224.121094 58.125 224.578125 57.429688 C 225.027344 56.730469 225.257812 55.945312 225.257812 55.074219 C 225.257812 53.957031 224.960938 53.089844 224.363281 52.484375 C 223.765625 51.878906 222.902344 51.574219 221.753906 51.574219 C 220.808594 51.574219 220.035156 51.835938 219.4375 52.347656 C 218.84375 52.863281 218.402344 53.652344 218.121094 54.714844 L 216.300781 54.714844 L 216.300781 51.835938 C 217.472656 51.277344 218.566406 50.863281 219.589844 50.585938 C 220.609375 50.316406 221.597656 50.179688 222.546875 50.179688 Z M 222.546875 50.179688 "/>
<path style=" stroke:none;fill-rule:evenodd;fill:rgb(0%,0%,0%);fill-opacity:1;" d="M 271.652344 53.742188 L 265.730469 63.160156 L 265.730469 63.371094 L 271.652344 63.371094 L 271.652344 59.597656 C 271.652344 58.644531 271.671875 57.582031 271.699219 56.402344 C 271.726562 55.230469 271.765625 54.34375 271.804688 53.742188 Z M 272.09375 50.316406 L 274.261719 50.316406 L 274.261719 63.371094 L 274.578125 63.371094 C 275.164062 63.371094 275.582031 63.332031 275.835938 63.238281 C 276.089844 63.15625 276.296875 63.003906 276.460938 62.789062 C 276.628906 62.566406 276.78125 62.210938 276.921875 61.722656 L 278.074219 61.722656 L 277.894531 64.84375 L 274.261719 64.84375 L 274.261719 67.328125 C 274.261719 68.003906 274.28125 68.503906 274.328125 68.8125 C 274.371094 69.128906 274.445312 69.378906 274.554688 69.558594 C 274.660156 69.738281 274.820312 69.890625 275.023438 70.015625 C 275.230469 70.132812 275.570312 70.257812 276.03125 70.375 L 276.03125 71.121094 L 269.882812 71.121094 L 269.882812 70.375 C 270.507812 70.210938 270.925781 70.039062 271.140625 69.839844 C 271.347656 69.644531 271.488281 69.359375 271.550781 69 C 271.621094 68.632812 271.652344 68.078125 271.652344 67.328125 L 271.652344 64.84375 L 263.230469 64.84375 L 263.230469 63.703125 Z M 272.09375 50.316406 "/>
<path style=" stroke:none;fill-rule:evenodd;fill:rgb(0%,0%,0%);fill-opacity:1;" d="M 323.183594 49.425781 L 324.367188 49.425781 L 324.140625 52.941406 L 315.421875 52.941406 L 315.421875 59.597656 C 315.953125 59.371094 316.523438 59.207031 317.136719 59.097656 C 317.753906 58.984375 318.367188 58.925781 318.988281 58.925781 C 320.191406 58.925781 321.257812 59.175781 322.183594 59.667969 C 323.113281 60.152344 323.832031 60.851562 324.339844 61.753906 C 324.839844 62.660156 325.09375 63.707031 325.09375 64.90625 C 325.09375 66.253906 324.8125 67.417969 324.242188 68.390625 C 323.679688 69.359375 322.859375 70.101562 321.789062 70.601562 C 320.722656 71.109375 319.453125 71.363281 317.984375 71.363281 C 316.242188 71.363281 314.414062 71.003906 312.5 70.285156 L 312.5 67.074219 L 314.335938 67.074219 C 314.640625 68.101562 315.097656 68.859375 315.707031 69.34375 C 316.316406 69.828125 317.109375 70.070312 318.074219 70.070312 C 319.421875 70.070312 320.441406 69.671875 321.121094 68.859375 C 321.8125 68.050781 322.15625 66.84375 322.15625 65.238281 C 322.15625 64.167969 321.972656 63.28125 321.609375 62.574219 C 321.246094 61.875 320.753906 61.367188 320.140625 61.050781 C 319.519531 60.738281 318.804688 60.582031 317.984375 60.582031 C 317.300781 60.582031 316.710938 60.625 316.214844 60.710938 C 315.714844 60.796875 315.1875 60.929688 314.621094 61.113281 L 313.410156 60.398438 L 313.410156 50.421875 L 321.761719 50.421875 C 322.105469 50.421875 322.351562 50.394531 322.503906 50.339844 C 322.652344 50.28125 322.777344 50.199219 322.867188 50.078125 C 322.957031 49.964844 323.0625 49.746094 323.183594 49.425781 Z M 323.183594 49.425781 "/>
<path style=" stroke:none;fill-rule:evenodd;fill:rgb(0%,0%,0%);fill-opacity:1;" d="M 223.183594 96.613281 C 222.6875 96.613281 222.207031 96.667969 221.75 96.777344 C 221.289062 96.890625 220.859375 97.054688 220.453125 97.261719 C 220.050781 97.476562 219.65625 97.742188 219.273438 98.070312 C 219.148438 98.175781 219.058594 98.296875 218.996094 98.414062 C 218.898438 98.605469 218.832031 98.84375 218.804688 99.132812 C 218.769531 99.414062 218.753906 99.886719 218.753906 100.554688 C 218.753906 102.484375 219.082031 103.953125 219.722656 104.964844 C 220.371094 105.980469 221.355469 106.480469 222.664062 106.480469 C 223.425781 106.480469 224.058594 106.351562 224.578125 106.085938 C 225.089844 105.828125 225.507812 105.464844 225.824219 105.003906 C 226.144531 104.546875 226.371094 104.003906 226.507812 103.382812 C 226.640625 102.761719 226.710938 102.085938 226.710938 101.355469 C 226.710938 99.859375 226.40625 98.695312 225.789062 97.859375 C 225.167969 97.03125 224.300781 96.613281 223.183594 96.613281 Z M 227.078125 86.589844 L 227.695312 87.421875 L 227.695312 88.167969 C 226.140625 88.167969 224.761719 88.5 223.5625 89.167969 C 222.359375 89.832031 221.359375 90.816406 220.566406 92.109375 C 219.773438 93.402344 219.214844 94.9375 218.894531 96.71875 L 219.046875 96.777344 C 219.894531 96.171875 220.730469 95.726562 221.550781 95.445312 C 222.375 95.164062 223.269531 95.019531 224.226562 95.019531 C 225.367188 95.019531 226.34375 95.269531 227.144531 95.773438 C 227.945312 96.269531 228.550781 96.972656 228.957031 97.878906 C 229.355469 98.78125 229.558594 99.84375 229.558594 101.054688 C 229.558594 102.367188 229.3125 103.53125 228.804688 104.535156 C 228.296875 105.539062 227.515625 106.328125 226.460938 106.90625 C 225.40625 107.480469 224.101562 107.769531 222.5625 107.769531 C 220.34375 107.769531 218.679688 107.085938 217.550781 105.707031 C 216.421875 104.335938 215.863281 102.308594 215.863281 99.628906 C 215.863281 97.828125 216.148438 96.144531 216.710938 94.582031 C 217.273438 93.011719 218.082031 91.644531 219.121094 90.476562 C 220.160156 89.3125 221.367188 88.394531 222.742188 87.722656 C 224.113281 87.050781 225.558594 86.671875 227.078125 86.589844 Z M 227.078125 86.589844 "/>
<path style=" stroke:none;fill-rule:evenodd;fill:rgb(0%,0%,0%);fill-opacity:1;" d="M 264.605469 86.835938 L 277.605469 86.835938 L 277.605469 87.558594 L 268.785156 107.632812 L 266.59375 107.632812 L 266.59375 106.894531 L 274.757812 89.589844 L 274.757812 89.363281 L 268.09375 89.363281 C 267.675781 89.363281 267.347656 89.402344 267.101562 89.476562 C 266.851562 89.554688 266.644531 89.664062 266.480469 89.804688 C 266.308594 89.945312 266.175781 90.132812 266.0625 90.363281 C 265.949219 90.59375 265.796875 91.058594 265.605469 91.746094 L 264.300781 91.746094 Z M 264.605469 86.835938 "/>
<path style=" stroke:none;fill-rule:evenodd;fill:rgb(0%,0%,0%);fill-opacity:1;" d="M 318.820312 97.433594 C 318.074219 97.433594 317.441406 97.542969 316.933594 97.78125 C 316.421875 98.011719 316.011719 98.324219 315.6875 98.71875 C 315.371094 99.113281 315.148438 99.578125 315.011719 100.109375 C 314.871094 100.640625 314.800781 101.203125 314.800781 101.8125 C 314.800781 102.46875 314.882812 103.082031 315.035156 103.652344 C 315.1875 104.222656 315.421875 104.722656 315.75 105.132812 C 316.078125 105.546875 316.5 105.878906 317.015625 106.121094 C 317.535156 106.363281 318.160156 106.480469 318.894531 106.480469 C 319.722656 106.480469 320.433594 106.3125 321.027344 105.972656 C 321.617188 105.636719 322.066406 105.132812 322.375 104.464844 C 322.679688 103.800781 322.835938 103.011719 322.835938 102.101562 C 322.835938 101.128906 322.667969 100.292969 322.335938 99.589844 C 322.003906 98.886719 321.535156 98.351562 320.925781 97.984375 C 320.320312 97.613281 319.617188 97.433594 318.820312 97.433594 Z M 318.894531 87.878906 C 317.625 87.878906 316.652344 88.222656 315.980469 88.917969 C 315.304688 89.605469 314.972656 90.59375 314.972656 91.863281 C 314.972656 92.464844 315.039062 93.023438 315.1875 93.546875 C 315.328125 94.074219 315.554688 94.53125 315.863281 94.914062 C 316.179688 95.296875 316.585938 95.601562 317.085938 95.828125 C 317.585938 96.058594 318.199219 96.171875 318.925781 96.171875 C 319.761719 96.171875 320.46875 96.007812 321.039062 95.679688 C 321.613281 95.347656 322.035156 94.867188 322.3125 94.234375 C 322.589844 93.609375 322.730469 92.875 322.730469 92.046875 C 322.730469 91.136719 322.566406 90.367188 322.238281 89.738281 C 321.90625 89.105469 321.457031 88.636719 320.878906 88.332031 C 320.304688 88.03125 319.644531 87.878906 318.894531 87.878906 Z M 318.925781 86.589844 C 320.382812 86.589844 321.601562 86.796875 322.59375 87.203125 C 323.582031 87.613281 324.328125 88.207031 324.828125 88.980469 C 325.324219 89.753906 325.578125 90.679688 325.578125 91.757812 C 325.578125 92.871094 325.304688 93.828125 324.761719 94.632812 C 324.214844 95.4375 323.375 96.09375 322.226562 96.597656 L 322.261719 96.792969 C 323.402344 97.238281 324.265625 97.890625 324.851562 98.742188 C 325.4375 99.59375 325.730469 100.628906 325.730469 101.828125 C 325.730469 103.011719 325.449219 104.050781 324.878906 104.953125 C 324.316406 105.851562 323.496094 106.542969 322.421875 107.035156 C 321.34375 107.527344 320.089844 107.769531 318.65625 107.769531 C 317.308594 107.769531 316.128906 107.542969 315.113281 107.097656 C 314.101562 106.644531 313.3125 105.992188 312.75 105.128906 C 312.191406 104.261719 311.90625 103.242188 311.90625 102.074219 C 311.90625 101.191406 312.058594 100.429688 312.363281 99.78125 C 312.667969 99.132812 313.066406 98.601562 313.554688 98.183594 C 314.046875 97.757812 314.660156 97.382812 315.410156 97.035156 L 315.378906 96.839844 C 313.207031 95.902344 312.121094 94.285156 312.121094 92 C 312.121094 90.960938 312.410156 90.03125 312.980469 89.210938 C 313.550781 88.394531 314.363281 87.75 315.417969 87.285156 C 316.472656 86.824219 317.640625 86.589844 318.925781 86.589844 Z M 318.925781 86.589844 "/>
</g>
</svg>
