<svg width="635" height="202" xmlns="http://www.w3.org/2000/svg" xmlns:xlink="http://www.w3.org/1999/xlink" xml:space="preserve" overflow="hidden"><g transform="translate(-500 -862)"><path d="M605.832 900.246C614.883 904.839 622.077 913.269 627.413 925.535 632.749 937.801 635.417 952.175 635.417 968.656 635.417 985.029 632.749 999.403 627.413 1011.78 622.077 1024.15 614.883 1032.61 605.832 1037.15L604.535 1033.91C611.776 1029.2 617.443 1021.13 621.536 1009.67 625.63 998.214 627.676 984.57 627.676 968.737 627.676 952.607 625.616 938.875 621.496 927.541 617.375 916.207 611.722 908.189 604.535 903.488ZM549.117 900.246 550.454 903.488C543.267 908.189 537.614 916.207 533.493 927.541 529.373 938.875 527.313 952.607 527.313 968.737 527.313 984.57 529.353 998.214 533.433 1009.67 537.512 1021.13 543.186 1029.2 550.454 1033.91L549.117 1037.15C540.093 1032.61 532.912 1024.15 527.576 1011.78 522.24 999.403 519.572 985.029 519.572 968.656 519.572 952.175 522.24 937.801 527.576 925.535 532.912 913.269 540.093 904.839 549.117 900.246Z" fill-rule="evenodd"/><path d="M565.653 900.327C567.356 900.327 568.7 900.888 569.686 902.009 570.672 903.13 571.165 904.596 571.165 906.406 571.165 907.838 570.841 909.432 570.192 911.188L570.679 911.35C573.327 907.622 575.846 904.859 578.237 903.063 580.628 901.266 583.094 900.368 585.633 900.368 588.146 900.368 590.078 901.09 591.429 902.536 592.78 903.981 593.455 905.987 593.455 908.554 593.455 910.256 593.063 912.674 592.28 915.808L589.646 926.427C588.916 929.372 588.551 931.452 588.551 932.668 588.551 933.749 588.727 934.532 589.078 935.018 589.429 935.505 589.983 935.748 590.74 935.748 591.55 935.748 592.415 935.417 593.334 934.755 594.252 934.093 595.549 932.83 597.224 930.966L599.534 933.235C597.211 935.721 595.184 937.538 593.455 938.686 591.726 939.834 589.754 940.409 587.538 940.409 585.782 940.409 584.377 939.78 583.323 938.524 582.27 937.268 581.743 935.667 581.743 933.722 581.743 931.965 582.189 929.385 583.08 925.981L584.863 918.97C585.512 916.43 585.937 914.552 586.14 913.336 586.343 912.12 586.444 911.134 586.444 910.378 586.444 908.514 586.133 907.169 585.512 906.345 584.89 905.521 583.877 905.109 582.472 905.109 581.337 905.109 580.115 905.562 578.805 906.467 577.494 907.372 576.103 908.736 574.63 910.56 573.158 912.384 571.976 914.154 571.084 915.869 570.192 917.585 569.463 919.699 568.896 922.212L565.045 939.76 558.034 939.76 563.951 914.066C564.546 911.472 564.843 909.473 564.843 908.068 564.843 906.987 564.667 906.203 564.316 905.717 563.965 905.231 563.411 904.988 562.654 904.988 561.817 904.988 560.932 905.332 560 906.021 559.068 906.71 557.791 907.96 556.17 909.77L553.86 907.5C556.346 904.907 558.412 903.063 560.061 901.968 561.709 900.874 563.573 900.327 565.653 900.327Z" fill-rule="evenodd"/><text fill="#000000" fill-opacity="0" font-family="Arial,Arial_MSFontService,sans-serif" font-size="40.0815" x="553.86" y="935.398">𝑛</text><path d="M574.644 978.537 576.994 978.537 569.051 1013.92 570.348 1013.92C572.374 1013.92 574.65 1013.03 577.177 1011.26 579.703 1009.49 581.722 1007.85 583.235 1006.34 584.748 1004.83 585.505 1003.37 585.505 1001.96 585.505 1000.64 584.586 999.895 582.749 999.733L583.195 997.747 596.326 997.747 597.096 999.733C594.853 1001.76 592.476 1003.75 589.963 1005.69L579.912 1013.47 583.884 1028.1C584.208 1029.34 584.499 1030.24 584.755 1030.8 585.012 1031.35 585.309 1031.76 585.647 1032.03 585.985 1032.3 586.437 1032.44 587.005 1032.44 587.707 1032.44 588.545 1032.06 589.517 1031.3 590.49 1030.55 591.598 1029.45 592.84 1028.02L595.151 1030.29C592.719 1032.86 590.706 1034.64 589.112 1035.64 587.518 1036.64 585.978 1037.14 584.492 1037.14 582.655 1037.14 581.196 1036.62 580.115 1035.58 579.034 1034.54 578.183 1032.8 577.562 1030.37L574.887 1019.83C574.617 1018.78 574.346 1018.05 574.076 1017.65 573.806 1017.24 573.495 1016.97 573.144 1016.84 572.793 1016.7 572.172 1016.63 571.28 1016.63L568.484 1016.63 564.269 1036.49 557.257 1036.49 567.673 990.169C568.024 988.602 568.274 987.379 568.423 986.501 568.571 985.623 568.646 984.846 568.646 984.171 568.646 983.036 568.301 982.239 567.612 981.779 566.923 981.32 565.687 981.063 563.904 981.009L564.39 978.902Z" fill-rule="evenodd"/><text fill="#000000" fill-opacity="0" font-family="Arial,Arial_MSFontService,sans-serif" font-size="58.6025" x="557.257" y="1029.81">𝑘</text><path d="M671.263 974.406 721.193 974.406 721.193 979.796 671.263 979.796ZM671.263 957.587 721.193 957.587 721.193 962.977 671.263 962.977Z" fill-rule="evenodd"/><text fill="#000000" fill-opacity="0" font-family="Arial,Arial_MSFontService,sans-serif" font-size="22.209" x="671.263" y="977.02">=</text><path d="M912.566 890.519C914.268 890.519 915.612 891.079 916.598 892.201 917.585 893.322 918.078 894.788 918.078 896.598 918.078 898.03 917.753 899.624 917.105 901.38L917.591 901.542C920.239 897.814 922.759 895.051 925.15 893.254 927.541 891.458 930.006 890.559 932.546 890.559 935.059 890.559 936.99 891.282 938.341 892.727 939.692 894.173 940.368 896.179 940.368 898.746 940.368 900.448 939.976 902.866 939.192 906L936.558 916.618C935.829 919.563 935.464 921.644 935.464 922.859 935.464 923.94 935.639 924.724 935.991 925.21 936.342 925.696 936.896 925.94 937.652 925.94 938.463 925.94 939.327 925.609 940.246 924.947 941.165 924.285 942.462 923.022 944.137 921.157L946.447 923.427C944.123 925.913 942.097 927.73 940.368 928.878 938.638 930.026 936.666 930.6 934.451 930.6 932.695 930.6 931.29 929.972 930.236 928.716 929.182 927.459 928.655 925.859 928.655 923.913 928.655 922.157 929.101 919.577 929.993 916.172L931.776 909.161C932.424 906.622 932.85 904.744 933.052 903.528 933.255 902.312 933.356 901.326 933.356 900.569 933.356 898.705 933.046 897.361 932.424 896.537 931.803 895.713 930.79 895.301 929.385 895.301 928.25 895.301 927.027 895.753 925.717 896.659 924.407 897.564 923.015 898.928 921.543 900.752 920.07 902.576 918.888 904.345 917.997 906.061 917.105 907.777 916.375 909.891 915.808 912.403L911.958 929.952 904.947 929.952 910.864 904.257C911.458 901.664 911.755 899.664 911.755 898.259 911.755 897.179 911.58 896.395 911.229 895.909 910.877 895.422 910.323 895.179 909.567 895.179 908.729 895.179 907.844 895.524 906.912 896.213 905.98 896.902 904.704 898.151 903.083 899.962L900.772 897.692C903.258 895.098 905.325 893.254 906.973 892.16 908.621 891.066 910.486 890.519 912.566 890.519Z" fill-rule="evenodd"/><text fill="#000000" fill-opacity="0" font-family="Arial,Arial_MSFontService,sans-serif" font-size="40.0815" x="900.772" y="925.59">𝑛</text><path d="M956.594 920.549 964.7 920.549 964.7 929.952 956.594 929.952ZM956.554 874.632 965.105 874.632 962.471 913.092 958.54 913.092Z" fill-rule="evenodd"/><text fill="#000000" fill-opacity="0" font-family="Arial,Arial_MSFontService,sans-serif" font-size="55.3198" x="956.554" y="923.037">!</text><path d="M771.131 989.629 773.482 989.629 765.538 1025.01 766.835 1025.01C768.862 1025.01 771.138 1024.12 773.664 1022.35 776.19 1020.59 778.21 1018.94 779.723 1017.43 781.236 1015.92 781.993 1014.46 781.993 1013.05 781.993 1011.73 781.074 1010.99 779.237 1010.82L779.682 1008.84 792.813 1008.84 793.583 1010.82C791.341 1012.85 788.963 1014.84 786.451 1016.78L776.4 1024.56 780.371 1039.19C780.696 1040.44 780.986 1041.34 781.243 1041.89 781.499 1042.44 781.797 1042.85 782.134 1043.12 782.472 1043.4 782.925 1043.53 783.492 1043.53 784.195 1043.53 785.032 1043.15 786.005 1042.4 786.977 1041.64 788.085 1040.54 789.328 1039.11L791.638 1041.38C789.206 1043.95 787.194 1045.73 785.599 1046.73 784.005 1047.73 782.465 1048.23 780.979 1048.23 779.142 1048.23 777.683 1047.71 776.602 1046.67 775.522 1045.63 774.671 1043.9 774.049 1041.46L771.374 1030.93C771.104 1029.87 770.834 1029.14 770.564 1028.74 770.294 1028.33 769.983 1028.06 769.632 1027.93 769.28 1027.79 768.659 1027.72 767.767 1027.72L764.971 1027.72 760.756 1047.58 753.745 1047.58 764.161 1001.26C764.512 999.693 764.762 998.471 764.91 997.593 765.059 996.714 765.133 995.938 765.133 995.262 765.133 994.127 764.789 993.33 764.1 992.871 763.411 992.412 762.175 992.155 760.391 992.101L760.878 989.994Z" fill-rule="evenodd"/><text fill="#000000" fill-opacity="0" font-family="Arial,Arial_MSFontService,sans-serif" font-size="58.6025" x="753.745" y="1040.91">𝑘</text><path d="M805.505 1038.18 813.61 1038.18 813.61 1047.58 805.505 1047.58ZM805.464 992.263 814.016 992.263 811.381 1030.72 807.45 1030.72Z" fill-rule="evenodd"/><text fill="#000000" fill-opacity="0" font-family="Arial,Arial_MSFontService,sans-serif" font-size="55.3198" x="805.464" y="1040.67">!</text><path d="M1066.98 985.469C1074.86 987.549 1080.92 992.041 1085.15 998.944 1089.38 1005.85 1091.49 1014.18 1091.49 1023.93 1091.49 1033.71 1089.39 1042.04 1085.17 1048.91 1080.96 1055.79 1074.89 1060.27 1066.98 1062.35L1066 1059.23C1072.24 1057.15 1076.88 1053.04 1079.92 1046.91 1082.96 1040.78 1084.48 1032.98 1084.48 1023.52 1084.48 1014.39 1082.97 1006.81 1079.94 1000.77 1076.92 994.729 1072.23 990.67 1065.88 988.59ZM866.737 985.469 867.831 988.59C861.509 990.67 856.828 994.729 853.788 1000.77 850.749 1006.81 849.229 1014.39 849.229 1023.52 849.229 1032.98 850.749 1040.78 853.788 1046.91 856.828 1053.04 861.468 1057.15 867.709 1059.23L866.737 1062.35C858.82 1060.27 852.755 1055.79 848.54 1048.91 844.325 1042.04 842.218 1033.71 842.218 1023.93 842.218 1014.18 844.332 1005.85 848.56 998.944 852.788 992.041 858.847 987.549 866.737 985.469Z" fill-rule="evenodd"/><path d="M881.926 1008.15C883.628 1008.15 884.973 1008.71 885.959 1009.83 886.945 1010.95 887.438 1012.42 887.438 1014.23 887.438 1015.66 887.114 1017.26 886.465 1019.01L886.952 1019.17C889.599 1015.44 892.119 1012.68 894.51 1010.89 896.901 1009.09 899.367 1008.19 901.906 1008.19 904.419 1008.19 906.351 1008.91 907.702 1010.36 909.053 1011.8 909.728 1013.81 909.728 1016.38 909.728 1018.08 909.336 1020.5 908.553 1023.63L905.919 1034.25C905.189 1037.19 904.824 1039.27 904.824 1040.49 904.824 1041.57 905 1042.35 905.351 1042.84 905.702 1043.33 906.256 1043.57 907.013 1043.57 907.823 1043.57 908.688 1043.24 909.607 1042.58 910.525 1041.92 911.822 1040.65 913.497 1038.79L915.807 1041.06C913.484 1043.54 911.457 1045.36 909.728 1046.51 907.999 1047.66 906.027 1048.23 903.811 1048.23 902.055 1048.23 900.65 1047.6 899.596 1046.35 898.543 1045.09 898.016 1043.49 898.016 1041.54 898.016 1039.79 898.461 1037.21 899.353 1033.8L901.136 1026.79C901.785 1024.25 902.21 1022.38 902.413 1021.16 902.616 1019.94 902.717 1018.96 902.717 1018.2 902.717 1016.34 902.406 1014.99 901.785 1014.17 901.163 1013.34 900.15 1012.93 898.745 1012.93 897.61 1012.93 896.388 1013.38 895.077 1014.29 893.767 1015.19 892.376 1016.56 890.903 1018.38 889.431 1020.21 888.249 1021.98 887.357 1023.69 886.465 1025.41 885.736 1027.52 885.169 1030.03L881.318 1047.58 874.307 1047.58 880.224 1021.89C880.819 1019.29 881.116 1017.3 881.116 1015.89 881.116 1014.81 880.94 1014.03 880.589 1013.54 880.238 1013.05 879.684 1012.81 878.927 1012.81 878.09 1012.81 877.205 1013.16 876.273 1013.84 875.341 1014.53 874.064 1015.78 872.443 1017.59L870.133 1015.32C872.619 1012.73 874.685 1010.89 876.334 1009.79 877.982 1008.7 879.846 1008.15 881.926 1008.15Z" fill-rule="evenodd"/><text fill="#000000" fill-opacity="0" font-family="Arial,Arial_MSFontService,sans-serif" font-size="40.0815" x="870.133" y="1043.22">𝑛</text><path d="M942.505 1021.16 992.435 1021.16 992.435 1026.55 942.505 1026.55Z" fill-rule="evenodd"/><text fill="#000000" fill-opacity="0" font-family="Arial,Arial_MSFontService,sans-serif" font-size="5.39014" x="942.505" y="1025.88">−</text><path d="M1037.79 989.629 1040.14 989.629 1032.2 1025.01 1033.49 1025.01C1035.52 1025.01 1037.8 1024.12 1040.32 1022.35 1042.85 1020.59 1044.87 1018.94 1046.38 1017.43 1047.89 1015.92 1048.65 1014.46 1048.65 1013.05 1048.65 1011.73 1047.73 1010.99 1045.89 1010.82L1046.34 1008.84 1059.47 1008.84 1060.24 1010.82C1058 1012.85 1055.62 1014.84 1053.11 1016.78L1043.06 1024.56 1047.03 1039.19C1047.35 1040.44 1047.64 1041.34 1047.9 1041.89 1048.16 1042.44 1048.45 1042.85 1048.79 1043.12 1049.13 1043.4 1049.58 1043.53 1050.15 1043.53 1050.85 1043.53 1051.69 1043.15 1052.66 1042.4 1053.64 1041.64 1054.74 1040.54 1055.99 1039.11L1058.3 1041.38C1055.86 1043.95 1053.85 1045.73 1052.26 1046.73 1050.66 1047.73 1049.12 1048.23 1047.64 1048.23 1045.8 1048.23 1044.34 1047.71 1043.26 1046.67 1042.18 1045.63 1041.33 1043.9 1040.71 1041.46L1038.03 1030.93C1037.76 1029.87 1037.49 1029.14 1037.22 1028.74 1036.95 1028.33 1036.64 1028.06 1036.29 1027.93 1035.94 1027.79 1035.32 1027.72 1034.43 1027.72L1031.63 1027.72 1027.41 1047.58 1020.4 1047.58 1030.82 1001.26C1031.17 999.693 1031.42 998.471 1031.57 997.593 1031.72 996.714 1031.79 995.938 1031.79 995.262 1031.79 994.127 1031.45 993.33 1030.76 992.871 1030.07 992.412 1028.83 992.155 1027.05 992.101L1027.54 989.994Z" fill-rule="evenodd"/><text fill="#000000" fill-opacity="0" font-family="Arial,Arial_MSFontService,sans-serif" font-size="58.6025" x="1020.4" y="1040.91">𝑘</text><path d="M1106.4 1038.18 1114.51 1038.18 1114.51 1047.58 1106.4 1047.58ZM1106.36 992.263 1114.91 992.263 1112.28 1030.72 1108.35 1030.72Z" fill-rule="evenodd"/><text fill="#000000" fill-opacity="0" font-family="Arial,Arial_MSFontService,sans-serif" font-size="55.3198" x="1106.36" y="1040.67">!</text><path d="M750.156 966.393 874.156 966.393 998.156 966.393 1122.16 966.393 1122.16 971.393 998.156 971.393 874.156 971.393 750.156 971.393Z" fill-rule="evenodd"/></g></svg>