<svg width="1893" height="192" xmlns="http://www.w3.org/2000/svg" xmlns:xlink="http://www.w3.org/1999/xlink" xml:space="preserve" overflow="hidden"><g transform="translate(-555 -1100)"><path d="M812.82 1126.89C820.628 1133 827.437 1142.99 833.246 1156.86 839.055 1170.74 841.959 1188.06 841.959 1208.84 841.959 1229.67 839.055 1247.02 833.246 1260.9 827.437 1274.77 820.628 1284.76 812.82 1290.87L810.469 1288.15C817.305 1281.83 822.952 1272 827.41 1258.65 831.868 1245.3 834.097 1228.71 834.097 1208.88 834.097 1189.05 831.868 1172.46 827.41 1159.11 822.952 1145.77 817.305 1135.93 810.469 1129.61ZM609.747 1126.89 612.098 1129.61C605.262 1135.93 599.616 1145.77 595.158 1159.11 590.7 1172.46 588.471 1189.05 588.471 1208.88 588.471 1228.71 590.7 1245.3 595.158 1258.65 599.616 1272 605.262 1281.83 612.098 1288.15L609.747 1290.87C601.939 1284.76 595.13 1274.77 589.322 1260.9 583.513 1247.02 580.608 1229.67 580.608 1208.84 580.608 1188.06 583.513 1170.74 589.322 1156.86 595.13 1142.99 601.939 1133 609.747 1126.89Z" fill-rule="evenodd"/><path d="M627.253 1148.88C628.956 1148.88 630.3 1149.44 631.286 1150.56 632.272 1151.68 632.765 1153.15 632.765 1154.96 632.765 1156.39 632.441 1157.99 631.792 1159.74L632.279 1159.9C634.927 1156.18 637.446 1153.41 639.837 1151.62 642.228 1149.82 644.694 1148.92 647.233 1148.92 649.746 1148.92 651.678 1149.64 653.029 1151.09 654.38 1152.54 655.055 1154.54 655.055 1157.11 655.055 1158.81 654.663 1161.23 653.88 1164.36L651.246 1174.98C650.516 1177.93 650.151 1180.01 650.151 1181.22 650.151 1182.3 650.327 1183.09 650.678 1183.57 651.029 1184.06 651.583 1184.3 652.34 1184.3 653.15 1184.3 654.015 1183.97 654.934 1183.31 655.852 1182.65 657.149 1181.38 658.824 1179.52L661.134 1181.79C658.811 1184.28 656.784 1186.09 655.055 1187.24 653.326 1188.39 651.354 1188.96 649.138 1188.96 647.382 1188.96 645.977 1188.33 644.923 1187.08 643.87 1185.82 643.343 1184.22 643.343 1182.28 643.343 1180.52 643.789 1177.94 644.68 1174.54L646.463 1167.52C647.112 1164.98 647.537 1163.11 647.74 1161.89 647.943 1160.67 648.044 1159.69 648.044 1158.93 648.044 1157.07 647.733 1155.72 647.112 1154.9 646.49 1154.08 645.477 1153.66 644.072 1153.66 642.938 1153.66 641.715 1154.12 640.405 1155.02 639.094 1155.93 637.703 1157.29 636.23 1159.11 634.758 1160.94 633.576 1162.71 632.684 1164.42 631.792 1166.14 631.063 1168.25 630.496 1170.77L626.646 1188.31 619.634 1188.31 625.551 1162.62C626.146 1160.03 626.443 1158.03 626.443 1156.62 626.443 1155.54 626.267 1154.76 625.916 1154.27 625.565 1153.79 625.011 1153.54 624.254 1153.54 623.417 1153.54 622.532 1153.89 621.6 1154.58 620.668 1155.26 619.391 1156.51 617.77 1158.32L615.46 1156.05C617.946 1153.46 620.013 1151.62 621.661 1150.52 623.309 1149.43 625.173 1148.88 627.253 1148.88Z" fill-rule="evenodd"/><text fill="#000000" fill-opacity="0" font-family="Arial,Arial_MSFontService,sans-serif" font-size="40.0815" x="615.46" y="1183.95">𝑛</text><path d="M709.919 1138.55 715.674 1138.55 715.674 1161.89 737.762 1161.89 737.762 1167.28 715.674 1167.28 715.674 1190.62 709.919 1190.62 709.919 1167.28 687.832 1167.28 687.832 1161.89 709.919 1161.89Z" fill-rule="evenodd"/><text fill="#000000" fill-opacity="0" font-family="Arial,Arial_MSFontService,sans-serif" font-size="52.0776" x="687.832" y="1184.11">+</text><path d="M787.656 1141.87 771.81 1167.04 771.81 1167.6 787.656 1167.6 787.656 1157.51C787.656 1154.97 787.696 1152.13 787.777 1148.98 787.858 1145.83 787.953 1143.46 788.061 1141.87ZM788.831 1132.71 794.626 1132.71 794.626 1167.6 795.477 1167.6C797.045 1167.6 798.166 1167.49 798.841 1167.26 799.517 1167.03 800.077 1166.63 800.523 1166.04 800.969 1165.46 801.381 1164.51 801.759 1163.19L804.839 1163.19 804.353 1171.54 794.626 1171.54 794.626 1178.18C794.626 1179.99 794.687 1181.32 794.809 1182.15 794.93 1182.99 795.133 1183.65 795.417 1184.14 795.7 1184.63 796.119 1185.03 796.673 1185.36 797.227 1185.68 798.125 1186 799.368 1186.33L799.368 1188.31 782.914 1188.31 782.914 1186.33C784.589 1185.9 785.71 1185.42 786.278 1184.89 786.845 1184.36 787.217 1183.61 787.392 1182.64 787.568 1181.67 787.656 1180.18 787.656 1178.18L787.656 1171.54 765.122 1171.54 765.122 1168.5Z" fill-rule="evenodd"/><text fill="#000000" fill-opacity="0" font-family="Arial,Arial_MSFontService,sans-serif" font-size="55.6035" x="765.122" y="1181.36">4</text><path d="M713.887 1238.6 698.041 1263.77 698.041 1264.34 713.887 1264.34 713.887 1254.24C713.887 1251.71 713.927 1248.86 714.008 1245.71 714.09 1242.57 714.184 1240.2 714.292 1238.6ZM715.062 1229.44 720.858 1229.44 720.858 1264.34 721.709 1264.34C723.276 1264.34 724.397 1264.22 725.072 1263.99 725.748 1263.76 726.309 1263.36 726.754 1262.78 727.2 1262.19 727.612 1261.24 727.99 1259.92L731.07 1259.92 730.584 1268.27 720.858 1268.27 720.858 1274.91C720.858 1276.72 720.918 1278.05 721.04 1278.89 721.162 1279.72 721.364 1280.38 721.648 1280.87 721.932 1281.36 722.35 1281.76 722.904 1282.09 723.458 1282.41 724.356 1282.74 725.599 1283.06L725.599 1285.05 709.145 1285.05 709.145 1283.06C710.82 1282.63 711.942 1282.15 712.509 1281.62 713.076 1281.09 713.448 1280.34 713.623 1279.37 713.799 1278.4 713.887 1276.91 713.887 1274.91L713.887 1268.27 691.354 1268.27 691.354 1265.23Z" fill-rule="evenodd"/><text fill="#000000" fill-opacity="0" font-family="Arial,Arial_MSFontService,sans-serif" font-size="55.6035" x="691.354" y="1278.1">4</text><path d="M877.559 1214.6 927.489 1214.6 927.489 1219.99 877.559 1219.99ZM877.559 1197.78 927.489 1197.78 927.489 1203.17 877.559 1203.17Z" fill-rule="evenodd"/><text fill="#000000" fill-opacity="0" font-family="Arial,Arial_MSFontService,sans-serif" font-size="22.209" x="877.559" y="1217.21">=</text><path d="M988.126 1111.58 989.22 1114.7C982.898 1116.78 978.217 1120.84 975.178 1126.88 972.138 1132.92 970.618 1140.5 970.618 1149.63 970.618 1159.09 972.138 1166.89 975.178 1173.02 978.217 1179.15 982.858 1183.26 989.099 1185.34L988.126 1188.46C980.21 1186.38 974.144 1181.9 969.929 1175.02 965.715 1168.15 963.607 1159.82 963.607 1150.04 963.607 1140.29 965.721 1131.96 969.95 1125.05 974.178 1118.15 980.237 1113.66 988.126 1111.58Z" fill-rule="evenodd"/><text fill="#000000" fill-opacity="0" font-family="Arial,Arial_MSFontService,sans-serif" font-size="76.8804" x="963.607" y="1178.85">(</text><path d="M1003.45 1130.71C1005.16 1130.71 1006.5 1131.27 1007.49 1132.39 1008.47 1133.51 1008.97 1134.98 1008.97 1136.79 1008.97 1138.22 1008.64 1139.81 1007.99 1141.57L1008.48 1141.73C1011.13 1138 1013.65 1135.24 1016.04 1133.44 1018.43 1131.65 1020.89 1130.75 1023.43 1130.75 1025.95 1130.75 1027.88 1131.47 1029.23 1132.92 1030.58 1134.36 1031.26 1136.37 1031.26 1138.94 1031.26 1140.64 1030.86 1143.06 1030.08 1146.19L1027.45 1156.81C1026.72 1159.75 1026.35 1161.83 1026.35 1163.05 1026.35 1164.13 1026.53 1164.91 1026.88 1165.4 1027.23 1165.89 1027.78 1166.13 1028.54 1166.13 1029.35 1166.13 1030.21 1165.8 1031.13 1165.14 1032.05 1164.47 1033.35 1163.21 1035.02 1161.35L1037.33 1163.62C1035.01 1166.1 1032.98 1167.92 1031.26 1169.07 1029.53 1170.22 1027.55 1170.79 1025.34 1170.79 1023.58 1170.79 1022.18 1170.16 1021.12 1168.91 1020.07 1167.65 1019.54 1166.05 1019.54 1164.1 1019.54 1162.35 1019.99 1159.77 1020.88 1156.36L1022.66 1149.35C1023.31 1146.81 1023.74 1144.93 1023.94 1143.72 1024.14 1142.5 1024.24 1141.52 1024.24 1140.76 1024.24 1138.89 1023.93 1137.55 1023.31 1136.73 1022.69 1135.9 1021.68 1135.49 1020.27 1135.49 1019.14 1135.49 1017.91 1135.94 1016.6 1136.85 1015.29 1137.75 1013.9 1139.12 1012.43 1140.94 1010.96 1142.77 1009.78 1144.53 1008.88 1146.25 1007.99 1147.97 1007.26 1150.08 1006.7 1152.59L1002.85 1170.14 995.834 1170.14 1001.75 1144.45C1002.35 1141.85 1002.64 1139.85 1002.64 1138.45 1002.64 1137.37 1002.47 1136.58 1002.12 1136.1 1001.76 1135.61 1001.21 1135.37 1000.45 1135.37 999.617 1135.37 998.732 1135.71 997.8 1136.4 996.868 1137.09 995.591 1138.34 993.97 1140.15L991.66 1137.88C994.146 1135.29 996.212 1133.44 997.861 1132.35 999.509 1131.26 1001.37 1130.71 1003.45 1130.71Z" fill-rule="evenodd"/><text fill="#000000" fill-opacity="0" font-family="Arial,Arial_MSFontService,sans-serif" font-size="40.0815" x="991.66" y="1165.78">𝑛</text><path d="M1086.12 1120.37 1091.87 1120.37 1091.87 1143.72 1113.96 1143.72 1113.96 1149.11 1091.87 1149.11 1091.87 1172.45 1086.12 1172.45 1086.12 1149.11 1064.03 1149.11 1064.03 1143.72 1086.12 1143.72Z" fill-rule="evenodd"/><text fill="#000000" fill-opacity="0" font-family="Arial,Arial_MSFontService,sans-serif" font-size="52.0776" x="1064.03" y="1165.94">+</text><path d="M1163.86 1123.7 1148.01 1148.86 1148.01 1149.43 1163.86 1149.43 1163.86 1139.34C1163.86 1136.8 1163.9 1133.96 1163.98 1130.81 1164.06 1127.66 1164.15 1125.29 1164.26 1123.7ZM1165.03 1114.54 1170.83 1114.54 1170.83 1149.43 1171.68 1149.43C1173.24 1149.43 1174.37 1149.32 1175.04 1149.09 1175.72 1148.86 1176.28 1148.45 1176.72 1147.87 1177.17 1147.29 1177.58 1146.34 1177.96 1145.01L1181.04 1145.01 1180.55 1153.36 1170.83 1153.36 1170.83 1160.01C1170.83 1161.82 1170.89 1163.14 1171.01 1163.98 1171.13 1164.82 1171.33 1165.48 1171.62 1165.97 1171.9 1166.45 1172.32 1166.86 1172.87 1167.18 1173.43 1167.51 1174.33 1167.83 1175.57 1168.16L1175.57 1170.14 1159.11 1170.14 1159.11 1168.16C1160.79 1167.72 1161.91 1167.24 1162.48 1166.72 1163.05 1166.19 1163.42 1165.44 1163.59 1164.47 1163.77 1163.49 1163.86 1162.01 1163.86 1160.01L1163.86 1153.36 1141.32 1153.36 1141.32 1150.32Z" fill-rule="evenodd"/><text fill="#000000" fill-opacity="0" font-family="Arial,Arial_MSFontService,sans-serif" font-size="55.6035" x="1141.32" y="1163.19">4</text><path d="M1186.67 1111.58C1194.56 1113.66 1200.62 1118.15 1204.85 1125.05 1209.07 1131.96 1211.19 1140.29 1211.19 1150.04 1211.19 1159.82 1209.08 1168.15 1204.87 1175.02 1200.65 1181.9 1194.59 1186.38 1186.67 1188.46L1185.7 1185.34C1191.94 1183.26 1196.58 1179.15 1199.62 1173.02 1202.66 1166.89 1204.18 1159.09 1204.18 1149.63 1204.18 1140.5 1202.66 1132.92 1199.64 1126.88 1196.61 1120.84 1191.92 1116.78 1185.58 1114.7Z" fill-rule="evenodd"/><text fill="#000000" fill-opacity="0" font-family="Arial,Arial_MSFontService,sans-serif" font-size="76.8804" x="1185.58" y="1178.85">)</text><path d="M1226.23 1160.74 1234.34 1160.74 1234.34 1170.14 1226.23 1170.14ZM1226.19 1114.82 1234.74 1114.82 1232.11 1153.28 1228.18 1153.28Z" fill-rule="evenodd"/><text fill="#000000" fill-opacity="0" font-family="Arial,Arial_MSFontService,sans-serif" font-size="55.3198" x="1226.19" y="1163.23">!</text><path d="M1046.98 1241.33 1031.13 1266.5 1031.13 1267.06 1046.98 1267.06 1046.98 1256.97C1046.98 1254.43 1047.02 1251.59 1047.1 1248.44 1047.18 1245.29 1047.28 1242.92 1047.39 1241.33ZM1048.16 1232.17 1053.95 1232.17 1053.95 1267.06 1054.8 1267.06C1056.37 1267.06 1057.49 1266.95 1058.17 1266.72 1058.84 1266.49 1059.4 1266.08 1059.85 1265.5 1060.29 1264.92 1060.71 1263.97 1061.08 1262.65L1064.16 1262.65 1063.68 1270.99 1053.95 1270.99 1053.95 1277.64C1053.95 1279.45 1054.01 1280.77 1054.13 1281.61 1054.26 1282.45 1054.46 1283.11 1054.74 1283.6 1055.03 1284.08 1055.44 1284.49 1056 1284.81 1056.55 1285.14 1057.45 1285.46 1058.69 1285.79L1058.69 1287.77 1042.24 1287.77 1042.24 1285.79C1043.91 1285.35 1045.04 1284.87 1045.6 1284.35 1046.17 1283.82 1046.54 1283.07 1046.72 1282.1 1046.89 1281.13 1046.98 1279.64 1046.98 1277.64L1046.98 1270.99 1024.45 1270.99 1024.45 1267.95Z" fill-rule="evenodd"/><text fill="#000000" fill-opacity="0" font-family="Arial,Arial_MSFontService,sans-serif" font-size="55.6035" x="1024.45" y="1280.82">4</text><path d="M1074.98 1278.37 1083.09 1278.37 1083.09 1287.77 1074.98 1287.77ZM1074.94 1232.45 1083.49 1232.45 1080.86 1270.91 1076.93 1270.91Z" fill-rule="evenodd"/><text fill="#000000" fill-opacity="0" font-family="Arial,Arial_MSFontService,sans-serif" font-size="55.3198" x="1074.94" y="1280.86">!</text><path d="M1117.17 1248.34C1118.87 1248.34 1120.21 1248.9 1121.2 1250.02 1122.18 1251.14 1122.68 1252.61 1122.68 1254.42 1122.68 1255.85 1122.35 1257.44 1121.7 1259.2L1122.19 1259.36C1124.84 1255.63 1127.36 1252.87 1129.75 1251.08 1132.14 1249.28 1134.61 1248.38 1137.15 1248.38 1139.66 1248.38 1141.59 1249.1 1142.94 1250.55 1144.29 1251.99 1144.97 1254 1144.97 1256.57 1144.97 1258.27 1144.58 1260.69 1143.79 1263.82L1141.16 1274.44C1140.43 1277.38 1140.06 1279.46 1140.06 1280.68 1140.06 1281.76 1140.24 1282.54 1140.59 1283.03 1140.94 1283.52 1141.5 1283.76 1142.25 1283.76 1143.06 1283.76 1143.93 1283.43 1144.85 1282.77 1145.76 1282.11 1147.06 1280.84 1148.74 1278.98L1151.05 1281.25C1148.72 1283.73 1146.7 1285.55 1144.97 1286.7 1143.24 1287.85 1141.27 1288.42 1139.05 1288.42 1137.29 1288.42 1135.89 1287.79 1134.84 1286.54 1133.78 1285.28 1133.26 1283.68 1133.26 1281.73 1133.26 1279.98 1133.7 1277.4 1134.59 1273.99L1136.38 1266.98C1137.02 1264.44 1137.45 1262.56 1137.65 1261.35 1137.86 1260.13 1137.96 1259.15 1137.96 1258.39 1137.96 1256.53 1137.65 1255.18 1137.02 1254.36 1136.4 1253.53 1135.39 1253.12 1133.98 1253.12 1132.85 1253.12 1131.63 1253.57 1130.32 1254.48 1129.01 1255.38 1127.62 1256.75 1126.14 1258.57 1124.67 1260.4 1123.49 1262.17 1122.6 1263.88 1121.7 1265.6 1120.98 1267.71 1120.41 1270.22L1116.56 1287.77 1109.55 1287.77 1115.46 1262.08C1116.06 1259.48 1116.36 1257.49 1116.36 1256.08 1116.36 1255 1116.18 1254.22 1115.83 1253.73 1115.48 1253.24 1114.92 1253 1114.17 1253 1113.33 1253 1112.44 1253.34 1111.51 1254.03 1110.58 1254.72 1109.3 1255.97 1107.68 1257.78L1105.37 1255.51C1107.86 1252.92 1109.93 1251.08 1111.57 1249.98 1113.22 1248.89 1115.09 1248.34 1117.17 1248.34Z" fill-rule="evenodd"/><text fill="#000000" fill-opacity="0" font-family="Arial,Arial_MSFontService,sans-serif" font-size="40.0815" x="1105.37" y="1283.41">𝑛</text><path d="M1161.19 1278.37 1169.3 1278.37 1169.3 1287.77 1161.19 1287.77ZM1161.15 1232.45 1169.71 1232.45 1167.07 1270.91 1163.14 1270.91Z" fill-rule="evenodd"/><text fill="#000000" fill-opacity="0" font-family="Arial,Arial_MSFontService,sans-serif" font-size="55.3198" x="1161.15" y="1280.86">!</text><path d="M956.156 1206.58 1242.16 1206.58 1242.16 1211.58 956.156 1211.58Z" fill-rule="evenodd"/><path d="M1270.85 1214.6 1320.78 1214.6 1320.78 1219.99 1270.85 1219.99ZM1270.85 1197.78 1320.78 1197.78 1320.78 1203.17 1270.85 1203.17Z" fill-rule="evenodd"/><text fill="#000000" fill-opacity="0" font-family="Arial,Arial_MSFontService,sans-serif" font-size="22.209" x="1270.85" y="1217.21">=</text><path d="M1381.42 1111.58 1382.52 1114.7C1376.19 1116.78 1371.51 1120.84 1368.47 1126.88 1365.43 1132.92 1363.91 1140.5 1363.91 1149.63 1363.91 1159.09 1365.43 1166.89 1368.47 1173.02 1371.51 1179.15 1376.15 1183.26 1382.39 1185.34L1381.42 1188.46C1373.51 1186.38 1367.44 1181.9 1363.23 1175.02 1359.01 1168.15 1356.9 1159.82 1356.9 1150.04 1356.9 1140.29 1359.02 1131.96 1363.25 1125.05 1367.47 1118.15 1373.53 1113.66 1381.42 1111.58Z" fill-rule="evenodd"/><text fill="#000000" fill-opacity="0" font-family="Arial,Arial_MSFontService,sans-serif" font-size="76.8804" x="1356.9" y="1178.85">(</text><path d="M1396.75 1130.71C1398.45 1130.71 1399.8 1131.27 1400.78 1132.39 1401.77 1133.51 1402.26 1134.98 1402.26 1136.79 1402.26 1138.22 1401.94 1139.81 1401.29 1141.57L1401.77 1141.73C1404.42 1138 1406.94 1135.24 1409.33 1133.44 1411.72 1131.65 1414.19 1130.75 1416.73 1130.75 1419.24 1130.75 1421.17 1131.47 1422.52 1132.92 1423.88 1134.36 1424.55 1136.37 1424.55 1138.94 1424.55 1140.64 1424.16 1143.06 1423.38 1146.19L1420.74 1156.81C1420.01 1159.75 1419.65 1161.83 1419.65 1163.05 1419.65 1164.13 1419.82 1164.91 1420.17 1165.4 1420.53 1165.89 1421.08 1166.13 1421.84 1166.13 1422.65 1166.13 1423.51 1165.8 1424.43 1165.14 1425.35 1164.47 1426.64 1163.21 1428.32 1161.35L1430.63 1163.62C1428.31 1166.1 1426.28 1167.92 1424.55 1169.07 1422.82 1170.22 1420.85 1170.79 1418.63 1170.79 1416.88 1170.79 1415.47 1170.16 1414.42 1168.91 1413.37 1167.65 1412.84 1166.05 1412.84 1164.1 1412.84 1162.35 1413.28 1159.77 1414.18 1156.36L1415.96 1149.35C1416.61 1146.81 1417.03 1144.93 1417.24 1143.72 1417.44 1142.5 1417.54 1141.52 1417.54 1140.76 1417.54 1138.89 1417.23 1137.55 1416.61 1136.73 1415.99 1135.9 1414.97 1135.49 1413.57 1135.49 1412.43 1135.49 1411.21 1135.94 1409.9 1136.85 1408.59 1137.75 1407.2 1139.12 1405.73 1140.94 1404.25 1142.77 1403.07 1144.53 1402.18 1146.25 1401.29 1147.97 1400.56 1150.08 1399.99 1152.59L1396.14 1170.14 1389.13 1170.14 1395.05 1144.45C1395.64 1141.85 1395.94 1139.85 1395.94 1138.45 1395.94 1137.37 1395.76 1136.58 1395.41 1136.1 1395.06 1135.61 1394.51 1135.37 1393.75 1135.37 1392.91 1135.37 1392.03 1135.71 1391.1 1136.4 1390.16 1137.09 1388.89 1138.34 1387.27 1140.15L1384.96 1137.88C1387.44 1135.29 1389.51 1133.44 1391.16 1132.35 1392.8 1131.26 1394.67 1130.71 1396.75 1130.71Z" fill-rule="evenodd"/><text fill="#000000" fill-opacity="0" font-family="Arial,Arial_MSFontService,sans-serif" font-size="40.0815" x="1384.96" y="1165.78">𝑛</text><path d="M1479.42 1120.37 1485.17 1120.37 1485.17 1143.72 1507.26 1143.72 1507.26 1149.11 1485.17 1149.11 1485.17 1172.45 1479.42 1172.45 1479.42 1149.11 1457.33 1149.11 1457.33 1143.72 1479.42 1143.72Z" fill-rule="evenodd"/><text fill="#000000" fill-opacity="0" font-family="Arial,Arial_MSFontService,sans-serif" font-size="52.0776" x="1457.33" y="1165.94">+</text><path d="M1557.68 1114.17 1559.91 1114.17C1559.75 1116.77 1559.66 1120.36 1559.66 1124.95L1559.66 1159.56C1559.66 1161.13 1559.75 1162.31 1559.93 1163.11 1560.1 1163.91 1560.41 1164.56 1560.86 1165.06 1561.31 1165.56 1561.95 1165.95 1562.78 1166.23 1563.62 1166.51 1564.68 1166.73 1565.95 1166.88 1567.22 1167.03 1568.89 1167.13 1570.97 1167.18L1570.97 1170.14 1541.02 1170.14 1541.02 1167.18C1544.02 1167.05 1546.16 1166.87 1547.45 1166.64 1548.73 1166.41 1549.71 1166.06 1550.38 1165.6 1551.06 1165.14 1551.55 1164.49 1551.86 1163.66 1552.17 1162.82 1552.33 1161.45 1552.33 1159.56L1552.33 1126.7C1552.33 1125.62 1552.14 1124.83 1551.76 1124.33 1551.38 1123.83 1550.83 1123.58 1550.1 1123.58 1549.24 1123.58 1548.01 1124.02 1546.41 1124.91 1544.82 1125.8 1542.85 1127.03 1540.49 1128.6L1538.71 1125.48Z" fill-rule="evenodd"/><text fill="#000000" fill-opacity="0" font-family="Arial,Arial_MSFontService,sans-serif" font-size="55.9683" x="1538.71" y="1163.15">1</text><path d="M1579.97 1111.58C1587.85 1113.66 1593.91 1118.15 1598.14 1125.05 1602.37 1131.96 1604.48 1140.29 1604.48 1150.04 1604.48 1159.82 1602.38 1168.15 1598.16 1175.02 1593.95 1181.9 1587.88 1186.38 1579.97 1188.46L1578.99 1185.34C1585.23 1183.26 1589.87 1179.15 1592.91 1173.02 1595.95 1166.89 1597.47 1159.09 1597.47 1149.63 1597.47 1140.5 1595.96 1132.92 1592.93 1126.88 1589.91 1120.84 1585.22 1116.78 1578.87 1114.7Z" fill-rule="evenodd"/><text fill="#000000" fill-opacity="0" font-family="Arial,Arial_MSFontService,sans-serif" font-size="76.8804" x="1578.87" y="1178.85">)</text><path d="M1643.52 1111.58 1644.61 1114.7C1638.29 1116.78 1633.61 1120.84 1630.57 1126.88 1627.53 1132.92 1626.01 1140.5 1626.01 1149.63 1626.01 1159.09 1627.53 1166.89 1630.57 1173.02 1633.61 1179.15 1638.25 1183.26 1644.49 1185.34L1643.52 1188.46C1635.6 1186.38 1629.54 1181.9 1625.32 1175.02 1621.11 1168.15 1619 1159.82 1619 1150.04 1619 1140.29 1621.12 1131.96 1625.34 1125.05 1629.57 1118.15 1635.63 1113.66 1643.52 1111.58Z" fill-rule="evenodd"/><text fill="#000000" fill-opacity="0" font-family="Arial,Arial_MSFontService,sans-serif" font-size="76.8804" x="1619" y="1178.85">(</text><path d="M1658.85 1130.71C1660.55 1130.71 1661.89 1131.27 1662.88 1132.39 1663.87 1133.51 1664.36 1134.98 1664.36 1136.79 1664.36 1138.22 1664.03 1139.81 1663.39 1141.57L1663.87 1141.73C1666.52 1138 1669.04 1135.24 1671.43 1133.44 1673.82 1131.65 1676.29 1130.75 1678.83 1130.75 1681.34 1130.75 1683.27 1131.47 1684.62 1132.92 1685.97 1134.36 1686.65 1136.37 1686.65 1138.94 1686.65 1140.64 1686.26 1143.06 1685.47 1146.19L1682.84 1156.81C1682.11 1159.75 1681.75 1161.83 1681.75 1163.05 1681.75 1164.13 1681.92 1164.91 1682.27 1165.4 1682.62 1165.89 1683.18 1166.13 1683.93 1166.13 1684.74 1166.13 1685.61 1165.8 1686.53 1165.14 1687.45 1164.47 1688.74 1163.21 1690.42 1161.35L1692.73 1163.62C1690.4 1166.1 1688.38 1167.92 1686.65 1169.07 1684.92 1170.22 1682.95 1170.79 1680.73 1170.79 1678.98 1170.79 1677.57 1170.16 1676.52 1168.91 1675.46 1167.65 1674.94 1166.05 1674.94 1164.1 1674.94 1162.35 1675.38 1159.77 1676.27 1156.36L1678.06 1149.35C1678.71 1146.81 1679.13 1144.93 1679.33 1143.72 1679.54 1142.5 1679.64 1141.52 1679.64 1140.76 1679.64 1138.89 1679.33 1137.55 1678.71 1136.73 1678.08 1135.9 1677.07 1135.49 1675.67 1135.49 1674.53 1135.49 1673.31 1135.94 1672 1136.85 1670.69 1137.75 1669.3 1139.12 1667.82 1140.94 1666.35 1142.77 1665.17 1144.53 1664.28 1146.25 1663.39 1147.97 1662.66 1150.08 1662.09 1152.59L1658.24 1170.14 1651.23 1170.14 1657.15 1144.45C1657.74 1141.85 1658.04 1139.85 1658.04 1138.45 1658.04 1137.37 1657.86 1136.58 1657.51 1136.1 1657.16 1135.61 1656.6 1135.37 1655.85 1135.37 1655.01 1135.37 1654.13 1135.71 1653.19 1136.4 1652.26 1137.09 1650.98 1138.34 1649.36 1140.15L1647.05 1137.88C1649.54 1135.29 1651.61 1133.44 1653.25 1132.35 1654.9 1131.26 1656.77 1130.71 1658.85 1130.71Z" fill-rule="evenodd"/><text fill="#000000" fill-opacity="0" font-family="Arial,Arial_MSFontService,sans-serif" font-size="40.0815" x="1647.05" y="1165.78">𝑛</text><path d="M1741.51 1120.37 1747.27 1120.37 1747.27 1143.72 1769.36 1143.72 1769.36 1149.11 1747.27 1149.11 1747.27 1172.45 1741.51 1172.45 1741.51 1149.11 1719.43 1149.11 1719.43 1143.72 1741.51 1143.72Z" fill-rule="evenodd"/><text fill="#000000" fill-opacity="0" font-family="Arial,Arial_MSFontService,sans-serif" font-size="52.0776" x="1719.43" y="1165.94">+</text><path d="M1816.9 1114.17C1821.92 1114.17 1825.72 1115.27 1828.29 1117.48 1830.85 1119.68 1832.14 1122.87 1832.14 1127.06 1832.14 1128.49 1832 1129.81 1831.71 1131.01 1831.43 1132.21 1830.98 1133.4 1830.37 1134.58 1829.77 1135.75 1828.95 1137.02 1827.92 1138.37 1826.9 1139.72 1825.76 1141.09 1824.52 1142.48 1823.28 1143.87 1821.13 1146.19 1818.07 1149.43 1812.94 1154.86 1809.17 1159.6 1806.77 1163.66L1822.05 1163.66C1823.37 1163.66 1824.44 1163.58 1825.25 1163.41 1826.06 1163.25 1826.71 1162.98 1827.19 1162.6 1827.68 1162.22 1828.06 1161.73 1828.35 1161.12 1828.63 1160.52 1828.99 1159.58 1829.42 1158.31L1832.87 1158.31 1832.18 1170.14 1798.82 1170.14 1798.82 1168.2C1799.99 1165.36 1801.55 1162.45 1803.52 1159.48 1805.5 1156.51 1808.29 1153.01 1811.91 1148.99 1815.05 1145.53 1817.3 1142.91 1818.68 1141.12 1820.2 1139.18 1821.32 1137.5 1822.07 1136.08 1822.81 1134.66 1823.34 1133.32 1823.67 1132.07 1823.99 1130.81 1824.15 1129.55 1824.15 1128.28 1824.15 1126.25 1823.83 1124.46 1823.18 1122.91 1822.53 1121.35 1821.54 1120.13 1820.2 1119.24 1818.86 1118.35 1817.18 1117.9 1815.16 1117.9 1810.1 1117.9 1806.7 1120.71 1804.94 1126.33L1800.04 1126.33 1800.04 1118.55C1803.31 1117.01 1806.37 1115.9 1809.22 1115.21 1812.07 1114.52 1814.63 1114.17 1816.9 1114.17Z" fill-rule="evenodd"/><text fill="#000000" fill-opacity="0" font-family="Arial,Arial_MSFontService,sans-serif" font-size="55.9683" x="1798.82" y="1163.15">2</text><path d="M1842.06 1111.58C1849.95 1113.66 1856.01 1118.15 1860.24 1125.05 1864.47 1131.96 1866.58 1140.29 1866.58 1150.04 1866.58 1159.82 1864.47 1168.15 1860.26 1175.02 1856.05 1181.9 1849.98 1186.38 1842.06 1188.46L1841.09 1185.34C1847.33 1183.26 1851.97 1179.15 1855.01 1173.02 1858.05 1166.89 1859.57 1159.09 1859.57 1149.63 1859.57 1140.5 1858.06 1132.92 1855.03 1126.88 1852.01 1120.84 1847.32 1116.78 1840.97 1114.7Z" fill-rule="evenodd"/><text fill="#000000" fill-opacity="0" font-family="Arial,Arial_MSFontService,sans-serif" font-size="76.8804" x="1840.97" y="1178.85">)</text><path d="M1905.62 1111.58 1906.71 1114.7C1900.39 1116.78 1895.71 1120.84 1892.67 1126.88 1889.63 1132.92 1888.11 1140.5 1888.11 1149.63 1888.11 1159.09 1889.63 1166.89 1892.67 1173.02 1895.71 1179.15 1900.35 1183.26 1906.59 1185.34L1905.62 1188.46C1897.7 1186.38 1891.64 1181.9 1887.42 1175.02 1883.21 1168.15 1881.1 1159.82 1881.1 1150.04 1881.1 1140.29 1883.21 1131.96 1887.44 1125.05 1891.67 1118.15 1897.73 1113.66 1905.62 1111.58Z" fill-rule="evenodd"/><text fill="#000000" fill-opacity="0" font-family="Arial,Arial_MSFontService,sans-serif" font-size="76.8804" x="1881.1" y="1178.85">(</text><path d="M1920.95 1130.71C1922.65 1130.71 1923.99 1131.27 1924.98 1132.39 1925.96 1133.51 1926.46 1134.98 1926.46 1136.79 1926.46 1138.22 1926.13 1139.81 1925.48 1141.57L1925.97 1141.73C1928.62 1138 1931.14 1135.24 1933.53 1133.44 1935.92 1131.65 1938.39 1130.75 1940.93 1130.75 1943.44 1130.75 1945.37 1131.47 1946.72 1132.92 1948.07 1134.36 1948.75 1136.37 1948.75 1138.94 1948.75 1140.64 1948.36 1143.06 1947.57 1146.19L1944.94 1156.81C1944.21 1159.75 1943.84 1161.83 1943.84 1163.05 1943.84 1164.13 1944.02 1164.91 1944.37 1165.4 1944.72 1165.89 1945.28 1166.13 1946.03 1166.13 1946.84 1166.13 1947.71 1165.8 1948.63 1165.14 1949.54 1164.47 1950.84 1163.21 1952.52 1161.35L1954.83 1163.62C1952.5 1166.1 1950.48 1167.92 1948.75 1169.07 1947.02 1170.22 1945.05 1170.79 1942.83 1170.79 1941.07 1170.79 1939.67 1170.16 1938.61 1168.91 1937.56 1167.65 1937.03 1166.05 1937.03 1164.1 1937.03 1162.35 1937.48 1159.77 1938.37 1156.36L1940.16 1149.35C1940.8 1146.81 1941.23 1144.93 1941.43 1143.72 1941.63 1142.5 1941.74 1141.52 1941.74 1140.76 1941.74 1138.89 1941.42 1137.55 1940.8 1136.73 1940.18 1135.9 1939.17 1135.49 1937.76 1135.49 1936.63 1135.49 1935.41 1135.94 1934.1 1136.85 1932.79 1137.75 1931.39 1139.12 1929.92 1140.94 1928.45 1142.77 1927.27 1144.53 1926.38 1146.25 1925.48 1147.97 1924.75 1150.08 1924.19 1152.59L1920.34 1170.14 1913.33 1170.14 1919.24 1144.45C1919.84 1141.85 1920.13 1139.85 1920.13 1138.45 1920.13 1137.37 1919.96 1136.58 1919.61 1136.1 1919.26 1135.61 1918.7 1135.37 1917.95 1135.37 1917.11 1135.37 1916.22 1135.71 1915.29 1136.4 1914.36 1137.09 1913.08 1138.34 1911.46 1140.15L1909.15 1137.88C1911.64 1135.29 1913.7 1133.44 1915.35 1132.35 1917 1131.26 1918.86 1130.71 1920.95 1130.71Z" fill-rule="evenodd"/><text fill="#000000" fill-opacity="0" font-family="Arial,Arial_MSFontService,sans-serif" font-size="40.0815" x="1909.15" y="1165.78">𝑛</text><path d="M2003.61 1120.37 2009.37 1120.37 2009.37 1143.72 2031.45 1143.72 2031.45 1149.11 2009.37 1149.11 2009.37 1172.45 2003.61 1172.45 2003.61 1149.11 1981.52 1149.11 1981.52 1143.72 2003.61 1143.72Z" fill-rule="evenodd"/><text fill="#000000" fill-opacity="0" font-family="Arial,Arial_MSFontService,sans-serif" font-size="52.0776" x="1981.52" y="1165.94">+</text><path d="M2078.83 1114.17C2081.89 1114.17 2084.56 1114.65 2086.86 1115.59 2089.16 1116.54 2090.91 1117.89 2092.13 1119.66 2093.34 1121.43 2093.95 1123.55 2093.95 1126.01 2093.95 1128.3 2093.49 1130.32 2092.57 1132.07 2091.65 1133.81 2090.36 1135.33 2088.7 1136.63 2087.04 1137.92 2084.89 1139.19 2082.24 1140.43L2082.24 1140.8C2083.89 1141.1 2085.47 1141.6 2087 1142.32 2088.53 1143.04 2089.89 1143.96 2091.07 1145.1 2092.26 1146.23 2093.22 1147.59 2093.93 1149.17 2094.65 1150.75 2095.01 1152.55 2095.01 1154.58 2095.01 1157.71 2094.32 1160.5 2092.96 1162.93 2091.59 1165.36 2089.51 1167.28 2086.7 1168.68 2083.89 1170.09 2080.47 1170.79 2076.44 1170.79 2074.12 1170.79 2071.61 1170.53 2068.93 1170 2066.24 1169.47 2063.77 1168.78 2061.53 1167.91L2061.53 1159.32 2066.39 1159.32C2067.34 1162.13 2068.59 1164.17 2070.14 1165.44 2071.7 1166.71 2073.81 1167.34 2076.48 1167.34 2080 1167.34 2082.65 1166.39 2084.45 1164.47 2086.24 1162.55 2087.14 1159.71 2087.14 1155.96 2087.14 1152.01 2085.95 1149 2083.58 1146.92 2081.2 1144.84 2077.71 1143.8 2073.12 1143.8L2069.47 1143.8 2069.47 1140.23C2073.12 1140.02 2076.19 1139.31 2078.69 1138.12 2081.19 1136.94 2083.05 1135.41 2084.27 1133.55 2085.48 1131.68 2086.09 1129.59 2086.09 1127.26 2086.09 1124.26 2085.29 1121.95 2083.7 1120.33 2082.1 1118.71 2079.78 1117.9 2076.73 1117.9 2074.19 1117.9 2072.12 1118.59 2070.53 1119.97 2068.93 1121.35 2067.76 1123.45 2067 1126.29L2062.14 1126.29 2062.14 1118.59C2065.27 1117.1 2068.2 1116 2070.93 1115.27 2073.66 1114.54 2076.29 1114.17 2078.83 1114.17Z" fill-rule="evenodd"/><text fill="#000000" fill-opacity="0" font-family="Arial,Arial_MSFontService,sans-serif" font-size="56.6167" x="2061.53" y="1163.71">3</text><path d="M2104.16 1111.58C2112.05 1113.66 2118.11 1118.15 2122.34 1125.05 2126.57 1131.96 2128.68 1140.29 2128.68 1150.04 2128.68 1159.82 2126.57 1168.15 2122.36 1175.02 2118.14 1181.9 2112.08 1186.38 2104.16 1188.46L2103.19 1185.34C2109.43 1183.26 2114.07 1179.15 2117.11 1173.02 2120.15 1166.89 2121.67 1159.09 2121.67 1149.63 2121.67 1140.5 2120.16 1132.92 2117.13 1126.88 2114.1 1120.84 2109.42 1116.78 2103.07 1114.7Z" fill-rule="evenodd"/><text fill="#000000" fill-opacity="0" font-family="Arial,Arial_MSFontService,sans-serif" font-size="76.8804" x="2103.07" y="1178.85">)</text><path d="M2167.72 1111.58 2168.81 1114.7C2162.49 1116.78 2157.81 1120.84 2154.77 1126.88 2151.73 1132.92 2150.21 1140.5 2150.21 1149.63 2150.21 1159.09 2151.73 1166.89 2154.77 1173.02 2157.81 1179.15 2162.45 1183.26 2168.69 1185.34L2167.72 1188.46C2159.8 1186.38 2153.73 1181.9 2149.52 1175.02 2145.3 1168.15 2143.2 1159.82 2143.2 1150.04 2143.2 1140.29 2145.31 1131.96 2149.54 1125.05 2153.77 1118.15 2159.83 1113.66 2167.72 1111.58Z" fill-rule="evenodd"/><text fill="#000000" fill-opacity="0" font-family="Arial,Arial_MSFontService,sans-serif" font-size="76.8804" x="2143.2" y="1178.85">(</text><path d="M2183.04 1130.71C2184.75 1130.71 2186.09 1131.27 2187.08 1132.39 2188.06 1133.51 2188.55 1134.98 2188.55 1136.79 2188.55 1138.22 2188.23 1139.81 2187.58 1141.57L2188.07 1141.73C2190.72 1138 2193.24 1135.24 2195.63 1133.44 2198.02 1131.65 2200.48 1130.75 2203.02 1130.75 2205.54 1130.75 2207.47 1131.47 2208.82 1132.92 2210.17 1134.36 2210.84 1136.37 2210.84 1138.94 2210.84 1140.64 2210.45 1143.06 2209.67 1146.19L2207.04 1156.81C2206.31 1159.75 2205.94 1161.83 2205.94 1163.05 2205.94 1164.13 2206.12 1164.91 2206.47 1165.4 2206.82 1165.89 2207.37 1166.13 2208.13 1166.13 2208.94 1166.13 2209.8 1165.8 2210.72 1165.14 2211.64 1164.47 2212.94 1163.21 2214.61 1161.35L2216.92 1163.62C2214.6 1166.1 2212.57 1167.92 2210.84 1169.07 2209.12 1170.22 2207.14 1170.79 2204.93 1170.79 2203.17 1170.79 2201.77 1170.16 2200.71 1168.91 2199.66 1167.65 2199.13 1166.05 2199.13 1164.1 2199.13 1162.35 2199.58 1159.77 2200.47 1156.36L2202.25 1149.35C2202.9 1146.81 2203.33 1144.93 2203.53 1143.72 2203.73 1142.5 2203.83 1141.52 2203.83 1140.76 2203.83 1138.89 2203.52 1137.55 2202.9 1136.73 2202.28 1135.9 2201.27 1135.49 2199.86 1135.49 2198.73 1135.49 2197.5 1135.94 2196.19 1136.85 2194.88 1137.75 2193.49 1139.12 2192.02 1140.94 2190.55 1142.77 2189.37 1144.53 2188.47 1146.25 2187.58 1147.97 2186.85 1150.08 2186.29 1152.59L2182.44 1170.14 2175.42 1170.14 2181.34 1144.45C2181.94 1141.85 2182.23 1139.85 2182.23 1138.45 2182.23 1137.37 2182.06 1136.58 2181.71 1136.1 2181.35 1135.61 2180.8 1135.37 2180.04 1135.37 2179.21 1135.37 2178.32 1135.71 2177.39 1136.4 2176.46 1137.09 2175.18 1138.34 2173.56 1140.15L2171.25 1137.88C2173.74 1135.29 2175.8 1133.44 2177.45 1132.35 2179.1 1131.26 2180.96 1130.71 2183.04 1130.71Z" fill-rule="evenodd"/><text fill="#000000" fill-opacity="0" font-family="Arial,Arial_MSFontService,sans-serif" font-size="40.0815" x="2171.25" y="1165.78">𝑛</text><path d="M2265.71 1120.37 2271.46 1120.37 2271.46 1143.72 2293.55 1143.72 2293.55 1149.11 2271.46 1149.11 2271.46 1172.45 2265.71 1172.45 2265.71 1149.11 2243.62 1149.11 2243.62 1143.72 2265.71 1143.72Z" fill-rule="evenodd"/><text fill="#000000" fill-opacity="0" font-family="Arial,Arial_MSFontService,sans-serif" font-size="52.0776" x="2243.62" y="1165.94">+</text><path d="M2343.45 1123.7 2327.6 1148.86 2327.6 1149.43 2343.45 1149.43 2343.45 1139.34C2343.45 1136.8 2343.49 1133.96 2343.57 1130.81 2343.65 1127.66 2343.74 1125.29 2343.85 1123.7ZM2344.62 1114.54 2350.42 1114.54 2350.42 1149.43 2351.27 1149.43C2352.83 1149.43 2353.96 1149.32 2354.63 1149.09 2355.31 1148.86 2355.87 1148.45 2356.31 1147.87 2356.76 1147.29 2357.17 1146.34 2357.55 1145.01L2360.63 1145.01 2360.14 1153.36 2350.42 1153.36 2350.42 1160.01C2350.42 1161.82 2350.48 1163.14 2350.6 1163.98 2350.72 1164.82 2350.92 1165.48 2351.21 1165.97 2351.49 1166.45 2351.91 1166.86 2352.46 1167.18 2353.02 1167.51 2353.91 1167.83 2355.16 1168.16L2355.16 1170.14 2338.7 1170.14 2338.7 1168.16C2340.38 1167.72 2341.5 1167.24 2342.07 1166.72 2342.63 1166.19 2343.01 1165.44 2343.18 1164.47 2343.36 1163.49 2343.45 1162.01 2343.45 1160.01L2343.45 1153.36 2320.91 1153.36 2320.91 1150.32Z" fill-rule="evenodd"/><text fill="#000000" fill-opacity="0" font-family="Arial,Arial_MSFontService,sans-serif" font-size="55.6035" x="2320.91" y="1163.19">4</text><path d="M2366.26 1111.58C2374.15 1113.66 2380.21 1118.15 2384.44 1125.05 2388.66 1131.96 2390.78 1140.29 2390.78 1150.04 2390.78 1159.82 2388.67 1168.15 2384.46 1175.02 2380.24 1181.9 2374.18 1186.38 2366.26 1188.46L2365.29 1185.34C2371.53 1183.26 2376.17 1179.15 2379.21 1173.02 2382.25 1166.89 2383.77 1159.09 2383.77 1149.63 2383.77 1140.5 2382.25 1132.92 2379.23 1126.88 2376.2 1120.84 2371.51 1116.78 2365.16 1114.7Z" fill-rule="evenodd"/><text fill="#000000" fill-opacity="0" font-family="Arial,Arial_MSFontService,sans-serif" font-size="76.8804" x="2365.16" y="1178.85">)</text><path d="M1899.62 1241.33 1883.78 1266.5 1883.78 1267.06 1899.62 1267.06 1899.62 1256.97C1899.62 1254.43 1899.66 1251.59 1899.75 1248.44 1899.83 1245.29 1899.92 1242.92 1900.03 1241.33ZM1900.8 1232.17 1906.6 1232.17 1906.6 1267.06 1907.45 1267.06C1909.01 1267.06 1910.13 1266.95 1910.81 1266.72 1911.49 1266.49 1912.05 1266.08 1912.49 1265.5 1912.94 1264.92 1913.35 1263.97 1913.73 1262.65L1916.81 1262.65 1916.32 1270.99 1906.6 1270.99 1906.6 1277.64C1906.6 1279.45 1906.66 1280.77 1906.78 1281.61 1906.9 1282.45 1907.1 1283.11 1907.39 1283.6 1907.67 1284.08 1908.09 1284.49 1908.64 1284.81 1909.2 1285.14 1910.09 1285.46 1911.34 1285.79L1911.34 1287.77 1894.88 1287.77 1894.88 1285.79C1896.56 1285.35 1897.68 1284.87 1898.25 1284.35 1898.81 1283.82 1899.19 1283.07 1899.36 1282.1 1899.54 1281.13 1899.62 1279.64 1899.62 1277.64L1899.62 1270.99 1877.09 1270.99 1877.09 1267.95ZM1851.27 1231.8C1856.3 1231.8 1860.1 1232.91 1862.66 1235.11 1865.23 1237.31 1866.51 1240.5 1866.51 1244.69 1866.51 1246.12 1866.37 1247.44 1866.09 1248.64 1865.8 1249.85 1865.36 1251.03 1864.75 1252.21 1864.14 1253.39 1863.32 1254.65 1862.3 1256 1861.27 1257.35 1860.14 1258.72 1858.89 1260.11 1857.65 1261.5 1855.5 1263.82 1852.45 1267.06 1847.32 1272.49 1843.55 1277.24 1841.14 1281.29L1856.42 1281.29C1857.74 1281.29 1858.81 1281.21 1859.62 1281.05 1860.43 1280.88 1861.08 1280.61 1861.57 1280.23 1862.05 1279.86 1862.44 1279.36 1862.72 1278.76 1863.01 1278.15 1863.36 1277.21 1863.8 1275.94L1867.24 1275.94 1866.55 1287.77 1833.2 1287.77 1833.2 1285.83C1834.36 1282.99 1835.93 1280.09 1837.9 1277.11 1839.87 1274.14 1842.67 1270.64 1846.29 1266.62 1849.42 1263.16 1851.68 1260.54 1853.06 1258.76 1854.57 1256.81 1855.7 1255.13 1856.44 1253.71 1857.18 1252.29 1857.72 1250.95 1858.04 1249.7 1858.37 1248.44 1858.53 1247.18 1858.53 1245.91 1858.53 1243.88 1858.2 1242.09 1857.56 1240.54 1856.91 1238.98 1855.91 1237.76 1854.58 1236.87 1853.24 1235.98 1851.56 1235.53 1849.53 1235.53 1844.48 1235.53 1841.07 1238.34 1839.32 1243.96L1834.41 1243.96 1834.41 1236.18C1837.68 1234.64 1840.74 1233.53 1843.59 1232.84 1846.44 1232.15 1849 1231.8 1851.27 1231.8Z" fill-rule="evenodd"/><text fill="#000000" fill-opacity="0" font-family="Arial,Arial_MSFontService,sans-serif" font-size="55.9683" x="1833.2" y="1280.78">24</text><path d="M1349.16 1206.58 1698.49 1206.58 2047.82 1206.58 2397.16 1206.58 2397.16 1211.58 2047.82 1211.58 1698.49 1211.58 1349.16 1211.58Z" fill-rule="evenodd"/><path d="M2416.17 1223.19 2424.35 1223.19 2424.35 1232.59 2416.17 1232.59Z" fill-rule="evenodd"/><text fill="#000000" fill-opacity="0" font-family="Arial,Arial_MSFontService,sans-serif" font-size="9.40234" x="2416.17" y="1231.41">.</text></g></svg>